<?xml version="1.0" encoding="utf-8" ?>
<svg xmlns="http://www.w3.org/2000/svg" xmlns:xlink="http://www.w3.org/1999/xlink" width="240" height="240">
	<path fill="#E7ECEF" transform="matrix(0.234375 0 0 0.234375 -6.10352e-05 -6.10352e-05)" d="M0 0L1024 0L1024 1024L0 1024L0 0Z"/>
	<path fill="#050404" transform="matrix(0.234375 0 0 0.234375 -6.10352e-05 -6.10352e-05)" d="M499.382 697.51C505.11 696.684 511.102 697.581 516.769 698.519Q510.302 700.079 503.881 701.816C503.567 701.614 503.373 701.268 503.137 700.979L503.344 699.354L502.476 698.367C501.414 698.155 500.414 697.835 499.382 697.51Z"/>
	<path fill="#F05D5E" transform="matrix(0.234375 0 0 0.234375 -6.10352e-05 -6.10352e-05)" d="M264.096 515.046C268.939 515.329 273.723 515.632 278.576 515.359C276.614 518.79 275.427 522.483 274.66 526.342C274.551 527.147 274.349 527.749 274.025 528.493L272.895 528.684C269.212 526.787 266.489 521.119 263.998 517.897L263.702 517.522L264.096 515.046Z"/>
	<path fill="#F05D5E" transform="matrix(0.234375 0 0 0.234375 -6.10352e-05 -6.10352e-05)" d="M244.42 482.696C249.503 482.108 248.476 483.484 252.301 484.064C257.037 484.781 274.354 487.107 277.998 486.469C279.674 488.088 280.714 488.824 283.056 489.181C283.25 489.211 283.445 489.232 283.64 489.257C284.423 491.897 284.653 494.835 284.664 497.587C284.506 497.592 284.348 497.583 284.191 497.603C278.314 498.335 259.233 497.111 253.609 495.215C251.467 494.493 251.373 492.177 250.53 490.253C245.877 487.185 249.276 486.266 247.417 484.371C246.717 483.657 245.518 483.971 244.42 482.696Z"/>
	<path fill="#F05D5E" transform="matrix(0.234375 0 0 0.234375 -6.10352e-05 -6.10352e-05)" d="M217.47 436.139C222.658 435.419 229.531 436.995 234.815 437.688C242.431 438.688 250.131 439.051 257.709 440.063C267.165 441.325 279.715 444.427 289.086 443.694C288.61 447.298 288.033 450.778 287.157 454.307C286.873 454.594 286.443 454.72 286.078 454.886C281.574 454.445 226.049 447.691 225.594 447.33C222.672 445.012 221.732 439.885 218.844 437.757C218.094 437.204 217.907 436.968 217.47 436.139Z"/>
	<path fill="#F05D5E" transform="matrix(0.234375 0 0 0.234375 -6.10352e-05 -6.10352e-05)" d="M577.633 673.338C579.427 673.806 582.247 675.97 584.44 676.852Q614.657 689.228 643.793 703.97C643.473 707.717 636.446 718.373 633.847 721.739Q630.061 728.182 626.048 734.486C618.645 726.177 612.87 716.864 605.973 708.184C596.656 696.458 586.551 685.381 577.633 673.338Z"/>
	<path fill="#F05D5E" transform="matrix(0.234375 0 0 0.234375 -6.10352e-05 -6.10352e-05)" d="M571.599 594.871C575.67 596.103 580.158 595.796 584.317 596.857C591.507 598.692 598.58 601.026 605.747 602.959C614.599 605.346 623.583 607.343 632.502 609.465C637.164 610.574 641.924 611.352 646.563 612.493C650.413 613.44 654.168 616.061 658.141 615.961C661.361 615.88 661.888 617.407 664.65 618.244C669.562 619.732 674.749 620.791 679.728 622.115C683.751 623.185 687.551 624.736 691.705 625.189C685.783 635.14 679.652 645.164 674.114 655.328C673.361 657.986 670.099 663.388 667.596 664.771C667.01 665.095 667.138 665.025 666.549 664.845C658.691 662.444 651.218 658.923 643.547 656.009L596.848 638.459C587.995 635.167 577.513 629.906 568.852 627.335L568.267 627.165C567.595 621.306 566.884 615.348 565.707 609.568C566.664 608.99 567.666 608.407 568.499 607.656C571.991 604.512 571.492 599.131 571.599 594.871Z"/>
	<path fill="#F05D5E" transform="matrix(0.234375 0 0 0.234375 -6.10352e-05 -6.10352e-05)" d="M432.091 772.794L434.24 772.945C439.322 776.203 443.295 780.227 447.647 784.312C455.014 791.228 462.18 798.372 469.563 805.264C472.166 807.693 475.516 809.268 478.016 811.739C479.362 813.07 480.18 814.781 481.285 816.285C482.558 818.017 482.826 818.247 484.976 818.536C491.08 826.069 498.839 832.411 505.938 838.978C511.236 843.877 516.37 849.249 521.485 854.357C527.193 860.057 532.385 867.864 539.063 872.374C539.183 872.454 539.305 872.531 539.426 872.609L539.416 873.168L537.812 873.796C537.574 874.966 537.675 875.559 537.813 876.729C531.109 885.734 527.018 896.544 520.67 905.771C520.52 905.964 520.378 906.164 520.219 906.35C517.517 909.511 515.456 914.107 513.1 917.709L513.279 918.561L512.624 918.738C508.327 915.347 493.866 889.784 490.223 883.359C489.016 881.232 488.095 877.487 485.976 876.205C483.728 874.844 479.907 866.36 478.165 863.53C469.702 849.787 460.92 836.098 452.717 822.209C449.074 816.041 444.072 804.822 439.254 800.418C435.998 797.442 435.136 791.247 432.811 787.473C431.737 785.731 429.784 784.813 428.649 783.081C429.724 779.813 430.425 775.756 432.091 772.794Z"/>
	<path fill="#F05D5E" transform="matrix(0.234375 0 0 0.234375 -6.10352e-05 -6.10352e-05)" d="M567.496 537.888C580.73 540.886 722.454 573.407 722.546 573.515C721.682 575.2 720.442 576.66 719.521 578.334C716.68 583.494 714.218 589.877 710.454 594.359C709.084 596.063 706.143 602.674 705.341 605.162C696.852 605.415 687.436 601.843 679.145 599.874L627.809 587.417L591.237 578.843C585.457 577.48 579.38 576.368 573.718 574.61C572.186 574.135 570.892 573.221 569.588 572.313C570.041 560.896 567.301 549.407 567.496 537.888Z"/>
	<path fill="#272932" transform="matrix(0.234375 0 0 0.234375 -6.10352e-05 -6.10352e-05)" d="M381.351 840.106C384.712 834.059 387.332 827.447 390.246 821.169C398.402 803.597 405.88 786.04 412.742 767.914C416.221 758.724 419.645 745.746 424.136 737.559C426.716 732.855 431.036 728.752 434.804 724.941C444.871 714.759 462.603 702.993 476.528 699.551C483.766 697.762 491.945 697.543 499.382 697.51C500.414 697.835 501.414 698.155 502.476 698.367L503.344 699.354L503.137 700.979C503.373 701.268 503.567 701.614 503.881 701.816C499.676 703.026 483.446 708.28 481.401 711.116C483.251 711.93 492.786 711.369 495.737 711.676C515.388 713.719 534.165 721.64 550.577 732.251C533.064 728.261 516.143 728.73 498.564 731.88C520.73 734.792 558.632 745.664 577.33 757.609C562.018 755.509 546.93 755.371 531.532 756.233C539.309 759.349 547.3 761.396 555.299 763.797C563.648 766.303 571.814 769.048 580.41 770.61C583.791 771.225 587.268 771.866 590.698 772.107C593.374 772.296 597.086 771.662 599.588 772.535C600.953 773.011 601.019 773.231 601.554 774.459L601.087 775.607C593.928 781.274 572.838 780.927 563.447 782.461C572.311 784.963 582.059 786.885 590.577 790.314L590.131 790.585L590.802 790.831C590.468 792.659 589.555 794.443 588.675 796.071C580.801 810.639 571.239 824.538 562.615 838.683C556.715 848.36 551.462 859.197 544.628 868.214C544.478 867.955 543.003 867.742 542.432 867.361C540.093 865.8 537.994 863.855 536.017 861.865C521.412 847.158 506.682 832.438 491.826 817.986C486.077 812.393 435.758 765.159 433.088 764.631C432.551 764.525 431.994 764.645 431.448 764.653C429.384 765.98 427.832 769.531 426.847 771.797C422.482 781.839 419.526 792.747 415.535 803.001L405.045 829.324C403.879 832.261 402.318 835.176 401.375 838.175C400.766 840.109 400.844 842.113 400.232 844.071C399.995 844.228 399.754 844.379 399.521 844.542C397.305 846.093 397.515 848.581 397.03 851.07C396.734 852.59 394.786 857.15 393.62 857.919C388.927 852.855 386.714 844.995 381.719 840.424C381.599 840.315 381.474 840.212 381.351 840.106Z"/>
	<path fill="#F05D5E" transform="matrix(0.234375 0 0 0.234375 -6.10352e-05 -6.10352e-05)" d="M861.619 271.975C866.33 270.197 870.934 269.588 875.753 268.386C883.516 266.451 891.2 264.194 899.06 262.65C901.434 262.184 904.952 262.502 906.998 261.288L907.649 261.945C907.61 263.795 906.414 263.863 906.027 265.287C905.268 268.078 906.645 272.66 904.397 275.116C901.892 277.853 900.022 282.524 897.395 284.715C895.028 286.689 895.347 290.521 893.931 293.022C892.952 294.751 891.309 293.919 890.308 295.976C890.548 296.697 890.786 297.416 891.008 298.143C890.242 298.724 889.558 298.924 888.642 299.189C887.963 300.76 888.247 302.257 887.749 303.697C887.069 305.664 883.399 308.468 882.076 310.358C880.123 313.147 875.89 324.177 873.289 325.174C873.069 325.258 872.843 325.325 872.62 325.401C871.794 326.66 872.041 328.149 872.073 329.594C871.033 331.024 870.679 330.159 869.616 330.986C868.267 332.036 866.142 336.707 865.154 338.382C860.875 345.627 856.494 352.583 851.894 359.608C850.33 361.997 849.889 365.193 848.36 367.533C847.833 368.339 846.743 368.589 845.887 368.872C845.282 370.038 845.465 371.291 845.502 372.565C844.561 373.887 844.313 373.164 843.267 373.889C840.613 375.727 841.37 382.848 836.534 385.106C835.955 386.419 835.937 387.592 835.877 388.997C833.053 393.376 830.103 391.392 829.742 397.822C828.12 399.73 827.011 397.939 827.111 401.361C824.334 405.087 818.062 412.233 817.653 416.773C817.349 420.146 812.108 422.323 811.723 425.153C811.554 426.398 811.423 427.351 810.781 428.463L808.998 428.587C808.053 430.066 808.823 431.064 808.336 432.483C807.346 435.367 803.555 437.684 802.132 441.291C800.946 444.298 799.852 446.896 797.707 449.358C796.072 451.235 794.249 452.549 794.133 455.082C794.111 455.573 794.21 456.768 794.089 457.155C793.712 458.366 791.723 457.24 790.286 460.21C788.882 463.114 788.435 467.018 785.1 468.132C784.55 469.569 784.916 471.632 784.426 472.726C782.641 476.713 778.981 475.548 778.397 481.448C778.24 481.621 778.081 481.792 777.926 481.967C773.636 486.788 770.518 492.894 767.187 498.409C763.771 504.064 760.134 509.642 756.839 515.36C751.943 523.855 747.429 532.391 741.862 540.495C734.704 537.345 718.248 535.148 709.963 533.538C708.267 533.208 705.002 533.033 703.531 532.289C702.841 531.94 702.168 530.837 701.477 530.584C699.806 529.971 697.773 530.716 696.037 530.425C690.622 529.515 685.08 527.677 679.658 526.513C674.308 525.365 668.586 524.777 663.343 523.471C661.95 523.124 660.729 522.181 659.307 521.803C653.122 520.161 646.289 519.478 639.967 518.124C631.057 516.215 622.231 513.935 613.316 512.047C598.502 508.91 583.482 506.084 568.877 502.062C568.919 500.823 568.777 501.584 569.173 500.652C570.727 496.99 571.077 487.989 571.382 483.812C577.38 477.154 582.785 470.341 587.778 462.886Q615.405 475.946 643.967 486.81C650.25 489.244 658.894 489.931 664.211 493.466C681.506 494.052 699.695 482.839 711.844 471.411C718.506 465.145 725.288 458.577 731.037 451.452C734.864 446.71 737.986 441.458 742.088 436.932C744.856 439.659 747.166 441.064 750.789 442.32L750.922 442.759C751.557 444.792 752.713 445.254 754.577 446.229Q757.09 447.569 759.741 448.611Q762.392 449.653 765.145 450.383C767.628 448.977 770.091 447.508 772.66 446.265C777.868 435.368 785.434 424.954 791.71 414.573C793.604 411.439 796.106 408.27 797.429 404.869C798.205 402.873 798.28 400.484 797.5 398.476C796.803 396.68 795.008 394.626 793.377 393.599C791.344 392.32 788.71 391.573 786.472 390.636C781.649 388.615 775.982 385.511 772.077 382.063L773.668 381.883C774.529 381.412 775.5 380.887 776.188 380.177C776.84 379.505 789.057 361.374 790.19 359.507C791.221 357.807 792.019 355.959 792.807 354.137C792.416 351.756 791.971 349.515 791.228 347.208C791.859 343.034 799.462 338.529 802.16 335.022C804.645 331.792 806.439 328.171 808.294 324.559C807.371 320.673 806.357 316.913 805.04 313.141C811.617 311.691 815.922 308.521 821.551 305.086C825.086 302.93 828.865 305.721 831.773 302.429C833.735 302.243 838.549 302.32 840.055 301.272L840.341 299.545C846.856 297.92 853.611 297.649 857.608 291.292C860.905 286.046 861.002 278.03 861.619 271.975Z"/>
	<path fill="#F05D5E" transform="matrix(0.234375 0 0 0.234375 -6.10352e-05 -6.10352e-05)" d="M211.22 91.0947C215.815 90.0084 238.944 90.9249 245.359 90.9307L349.147 91.0531L692.451 91.2039L786.938 91.0763C800.066 91.0994 813.532 90.584 826.629 91.3713C830.121 91.5812 833.49 92.4623 836.952 92.7587C838.944 92.9294 841.035 92.5402 842.994 92.8335C844.47 93.0544 844.512 93.5538 845.342 94.7216C847.109 95.2282 848.064 94.3189 849.774 94.4596C850.566 94.5248 850.483 96.2894 851.931 96.8207C854.35 97.7089 857.18 97.537 859.581 98.3707C861.349 98.9843 862.496 101.27 864.096 102.272C866.003 103.466 868.479 103.603 870.374 104.886C877.567 109.757 884.29 117.318 890.12 123.756C890.105 123.937 890.085 124.118 890.077 124.3C889.945 127.221 892.558 129.004 894.359 131.101Q894.01 132.056 893.696 133.024C894.845 134.429 896.435 136.721 898.338 137.097C898.502 137.129 898.672 137.117 898.84 137.128L899.694 138.27L899.874 137.676C899.639 138.014 899.261 138.537 899.081 138.889C898.458 140.113 898.666 140.451 899.011 141.72C905.062 147.293 900.391 153.66 905.695 159.672C907.617 161.851 905.977 171.672 906.359 175.008C907.154 175.422 907.909 175.849 908.661 176.337C909.542 183.302 908.778 191.05 908.785 198.111C908.794 206.623 909.35 215.328 908.9 223.81C908.824 225.258 908.767 226.584 908.062 227.887C905.348 229.067 902.326 228.919 899.464 229.585C896.894 230.182 894.477 231.327 891.924 231.972C881.432 234.619 878.175 224.414 870.346 220.068C866.934 218.175 863.304 218.037 859.517 218.527C854.055 219.235 849.063 221.047 843.742 222.262L794.967 233.763C775.466 238.267 755.833 242.082 736.36 246.685C731.333 247.874 726.141 248.655 721.192 250.121L720.698 250.272C716.265 249.109 716.808 237.637 714.649 233.694C713.995 232.5 712.341 231.497 711.258 230.697C705.584 232.377 699.366 233.076 693.534 234.224C683.346 236.231 659.875 241.686 651.012 245.435L650.075 245.839C647.356 246.984 645.577 248.79 643.496 250.816C644.573 254.614 644.633 258.749 645.559 262.635C636.746 266.464 627.101 266.952 618.181 270.451L617.935 279.475C607.594 284.409 598.806 290.543 592.736 300.551C592.252 301.348 592.603 301.108 591.761 301.321C591.869 300.583 591.801 299.766 591.805 299.018C590.892 297.365 589.752 297.099 588.105 296.234C586.958 294.249 585.647 292.623 584.128 290.91C588.794 288.431 593.277 284.903 596.986 281.154C597.499 278.574 597.646 275.958 597.84 273.34C600.571 272.276 603.504 271.551 606.319 270.724C610.014 262.441 608.005 256.518 607.283 247.878C606.997 244.808 606.582 241.953 605.81 238.966C607.284 237.205 608.517 235.352 609.775 233.437C609.536 228.555 608.133 223.818 607.5 218.979C606.572 211.889 606.568 204.242 606.543 197.089C608.274 195.221 609.937 193.468 611.975 191.917C612.714 189.995 613.438 188.029 613.929 186.027C615.518 179.541 614.99 173.217 611.399 167.475C600.399 149.89 563.727 131.73 543.758 127.347C539.287 126.365 534.827 126.461 530.276 126.551C514.365 126.866 500.283 130.141 486.759 138.901C465.395 152.74 454.299 172.497 451.147 197.497C450.274 204.421 450.693 211.729 449.259 218.511C446.042 218.979 443.503 221.673 440.948 223.571C434.907 228.057 428.168 232.503 423.842 238.794C421.318 242.466 419.394 246.458 416.657 249.999C415.073 250.984 413.468 250.325 411.725 250.249C409.698 250.16 405.722 252.653 403.848 253.554C396.04 257.306 387.357 263.83 383.426 271.86C381.969 274.835 381.477 278.167 379.084 280.611C373.971 285.834 366.315 289.201 360.698 294.646C355.274 299.903 350.679 306.315 345.797 312.09C319.221 343.527 302.71 371.227 295.608 412.409C295.042 415.69 291.765 421.832 291.935 424.539C292.012 425.754 292.12 426.976 292.211 428.192C291.89 428.872 291.846 429.431 291.099 429.74C289.847 430.257 288.471 430.19 287.145 430.099C280.473 429.641 274.038 428.323 267.457 427.566C264.285 427.201 261.019 427.621 257.837 427.341C252.731 426.892 209.2 422.268 207.909 421.737C207.846 421.115 207.817 420.544 207.838 419.917C207.844 419.719 207.856 419.52 207.865 419.322C204.726 417.243 205.65 416.481 204.697 413.142L202.988 412.591C201.765 411.271 202.333 409.573 201.641 407.876C201.25 407.649 200.344 407.141 200.01 406.874C198.919 406 199.302 404.454 199.294 403.194C198.315 401.788 197.745 401.734 196.192 401.103C195.201 399.85 195.599 399.261 195.778 397.717C195.519 396.884 195.306 396.505 194.605 395.97C193.711 395.289 192.753 394.713 192.2 393.697C189.992 389.64 188.207 385.312 185.901 381.274C183.945 377.849 181.571 374.595 179.516 371.213C176.158 365.687 172.996 360.036 169.551 354.564C167.882 351.913 165.939 349.441 164.358 346.735C162.163 342.98 160.421 338.82 158.549 334.886C158.014 334.723 156.871 334.436 156.516 333.975C154.408 331.239 153.86 326.526 151.768 323.541C151.007 322.455 150.639 322.529 149.403 322.274C147.299 320.43 148.167 316.597 146.242 314.746C144.942 313.496 144.215 314.451 143.224 312.393C143.42 311.296 143.677 310.516 143.236 309.451C141.918 308.551 140.749 307.813 139.814 306.482C139.73 305.374 139.781 304.056 139.158 303.101C138.73 302.446 137.607 302.532 136.888 302.413L136.408 301.707C136.511 300.728 136.726 299.695 136.341 298.759C135.983 297.887 134.761 297.994 134.175 297.415C132.419 295.681 126.131 282.562 124.303 279.383Q119.018 270.098 113.03 261.249C112.539 243.318 112.98 225.272 112.923 207.327C112.892 197.755 111.895 187.626 112.704 178.123C117.037 174.381 114.379 168 115.539 162.918C115.858 161.522 117.502 162.057 117.735 159.789C117.915 158.037 117.008 155.87 117.416 154.165C117.859 152.311 120.596 150.765 121.465 148.973C122.296 147.262 121.717 145.408 121.205 143.719L121.022 143.136C121.875 141.219 121.968 142.87 123.096 142.158C124.266 141.418 125.753 134.922 126.891 133.297C128.925 130.394 132.42 127.561 134.908 124.935C138.766 120.865 142.367 116.568 146.199 112.467C147.332 111.255 147.986 110.427 149.632 109.966C150.404 109.75 150.788 109.725 151.472 109.234C152.142 108.752 151.968 107.75 152.051 106.982C153.079 106.2 153.922 106.55 155.171 106.633L155.791 105.953C155.915 105.117 156.057 104.349 156.312 103.543C157.858 103.206 159.725 102.963 161.151 102.275C162.433 101.656 162.302 101.118 162.657 99.8247C164.517 98.853 166.58 100.302 168.464 99.4889L169.248 97.3658C170.398 96.855 171.506 97.2791 172.685 97.5271C173.628 97.7256 173.101 97.741 174.183 97.3635C174.511 96.5986 174.868 95.9192 175.305 95.2115C178.514 94.4962 181.656 95.7977 184.922 95.2081L185.438 93.4094C188.218 91.6138 202.675 93.0031 206.704 92.942C209.051 92.9064 209.66 92.72 211.22 91.0947Z"/>
	<path fill="#272932" transform="matrix(0.234375 0 0 0.234375 -6.10352e-05 -6.10352e-05)" d="M455.971 222.781C455.883 217.213 455.821 211.51 456.214 205.956C457.694 185.033 463.938 164.368 480.468 150.254C496.173 136.844 515.167 130.096 535.723 131.856C555.717 133.569 592.397 152.102 604.937 167.69C608.465 172.076 609.482 177.41 608.815 182.947C608.179 188.225 605.389 191.079 601.335 194.14C602.047 207.307 600.659 216.183 604.889 228.985C604.487 230.822 604.16 232.516 603.167 234.134C601.904 236.192 600.84 237.99 600.563 240.444C599.76 247.568 607.284 260.992 604.368 266.773C601.332 269.161 596.297 268.282 592.604 268.572C591.844 270.94 593.022 276.069 593.23 278.715C588.389 283.575 583.616 288.005 578.02 292C580.769 294.642 584.05 296.664 586.457 299.654L585.942 299.966L586.457 300.347L586.756 300.059L587.777 301.227C585.368 303.951 583.782 306.854 582.283 310.127C586.134 308.889 589.954 307.829 593.902 306.947C598.295 299.465 604.458 291.087 612.101 286.665C614.679 285.174 621.907 283.135 623.469 281.261C624.498 280.026 622.867 274.024 622.544 272.404C630.952 269.854 639.622 268.105 648.096 265.746L648.604 265.069L648.922 265.445L649.306 265.197C649.715 260.915 648.514 256.013 647.893 251.734C652.762 249.749 706.454 236.617 708.952 237.011C712.739 237.609 711.411 253.373 714.526 256.498C715.668 257.643 728.187 254.686 730.678 254.151Q775.126 244.282 819.407 233.689C834.946 230.034 850.392 225.474 866.218 223.307C871.994 228.202 876.995 234.008 883.659 237.897C885.042 238.705 885.887 239.238 887.518 238.928C890.256 238.407 893.15 237.138 895.846 236.333C899.166 235.341 902.694 234.705 906.08 233.936C925.696 229.481 945.404 225.431 964.919 220.502Q965.685 207.136 966.04 193.752C968.967 193.003 973.371 191.254 976.238 192.876C978.913 194.389 978.815 204.972 979.699 208.327C980.272 210.506 980.755 212.619 981.753 214.649C984.167 215.663 988.884 213.683 991.632 213.465C992.494 213.396 992.722 213.417 993.289 214.05C995.733 216.779 998.401 230.825 997.973 234.541C996.095 236.733 889.041 259.429 877.171 262.212C871.545 263.531 863.853 263.609 858.831 266.414C855.065 268.517 855.153 283.406 853.83 287.879C853.773 288.07 853.711 288.259 853.652 288.448C849.208 292.482 836.579 297.045 830.566 298.31C826.582 299.149 822.263 298.904 818.409 300.319C815.778 301.286 814.029 304.203 811.628 305.671C808.275 307.721 803.832 308.867 800.12 310.179C800.876 314.295 802.016 318.751 801.786 322.938C801.301 331.781 791.963 338.265 785.8 343.645Q786.192 345.347 786.546 347.057C788.313 355.664 782.711 361.042 777.882 367.374C775.346 370.698 773.005 374.138 770.7 377.624C771.837 379.01 772.806 380.309 773.668 381.883L772.077 382.063C771.824 381.94 771.559 381.84 771.318 381.693C768.576 380.026 765.902 377.214 763.368 375.158C746.974 361.849 725.944 340.93 721.335 319.742L715.99 320.717C723.491 345.209 749.862 373.871 771.162 387.806C776.123 391.052 781.563 394.083 786.86 396.744C788.564 397.6 790.743 398.036 792.256 399.194C793.29 399.985 793.457 400.667 793.636 401.891C786.407 411.071 780.956 421.454 775.023 431.457C772.388 435.899 769.368 440.117 766.683 444.544C764.915 444.188 762.889 444.108 761.218 443.421C754.102 440.494 745.881 433.855 739.69 429.157C739.039 430.806 738.332 432.45 737.405 433.965C733.387 440.53 727.881 446.707 722.732 452.415C708.553 468.132 692.908 482.99 671.53 487.736C669.612 488.162 667.454 488.601 665.499 488.276C662.043 487.701 658.45 486.167 655.088 485.125C637.168 479.569 620.51 472.138 603.29 464.835C598.051 462.613 591.978 460.904 587.18 457.876C583.172 463.011 570.108 478.018 567.887 482.552C566.58 485.219 564.188 507.026 563.336 512.392C562.599 517.033 561.585 521.716 560.567 526.304C561.534 528.541 562.376 530.632 562.802 533.04C563.948 539.503 563.809 546.178 564.378 552.709C565.8 569.049 567.643 585.857 567.642 602.249C565.746 604.51 563.486 606.497 561.359 608.539C563.102 614.524 564.111 621.031 564.847 627.223C565.363 631.564 565.498 635.922 566.796 640.127C562.258 644.329 558.105 649.111 553.868 653.62Q583.82 686.66 610.259 722.573C613.587 727.021 618.416 731.827 620.841 736.794C621.568 738.282 621.114 740.11 620.632 741.62C619.706 744.524 616.725 751.168 614.041 752.525C612.903 751.52 613.667 750.413 613.066 749.279C612.234 747.708 603.326 737.101 601.591 734.933C587.616 717.463 573.347 700.759 557.825 684.634C552.252 678.844 546.581 672.518 540.283 667.519L539.751 667.101C539.648 667.219 539.549 667.339 539.443 667.454C536.427 670.724 517.842 681.241 513.26 682.707C508.017 684.384 502.001 684.328 496.578 685.368C477.328 689.061 458.147 693.357 438.522 694.542C420.663 695.62 402.843 694.779 385 695.353C389.092 702.302 392.497 709.217 395.604 716.643C387.535 709.606 376.249 700.401 366.885 695.45C371.784 704.805 376.708 720.868 380.112 731.214C383.382 741.15 387.082 750.812 389.306 761.055C383.538 756.225 363.655 731.578 359.245 724.869L368.749 765.534C370.631 773.738 373.417 782.523 373.581 790.961C368.263 783.471 354.545 763.782 348.602 758.273L347.792 758.353C347.264 760.102 352.706 793.323 353.298 798.541C345.504 787.33 339.238 775.014 332.297 763.264L279.813 673.096C276.452 667.45 272.694 662.045 269.325 656.399C265.562 650.092 262.25 643.557 258.315 637.346C253.304 629.439 244.357 617.167 240.878 608.769C244.917 603.441 247.516 596.575 250.562 590.618C255.486 580.989 259.902 570.681 265.322 561.362C268.924 555.17 273.433 549.305 277.762 543.606C277.68 542.986 277.615 542.367 277.538 541.748C276.692 534.928 279.622 525.241 282.599 519.135C285.443 513.3 288.897 508.56 290.036 501.96C290.776 497.67 290.464 493.18 290.658 488.836C291.024 480.634 291.407 472.341 292.076 464.157C292.925 453.763 295.403 442.991 297.335 432.728C297.624 431.192 298.337 429.028 298.329 427.502C298.326 426.929 297.425 426.034 297.416 425.5C297.387 423.676 299.495 419.6 300.032 417.637C300.853 414.639 301.092 411.433 301.772 408.383C303.085 402.491 304.776 396.707 306.558 390.941C311.37 375.377 318.531 358.399 327.659 344.868C333.544 336.143 340.413 328.213 346.991 320.024C360.362 303.381 366.151 294.652 385.602 284.412C386.439 280.143 387.396 276.913 389.792 273.243C396.893 262.366 408.555 258.239 420.757 255.738Q421.503 253.894 422.3 252.072C428.333 238.369 442.376 228.076 455.971 222.781Z"/>
	<path fill="#E7ECEF" transform="matrix(0.234375 0 0 0.234375 -6.10352e-05 -6.10352e-05)" d="M521.495 311.308L523.4 311.725C524.403 312.765 525.013 314.328 525.271 315.745C525.492 316.963 525.228 317.659 524.609 318.672C523.114 318.79 522.805 318.445 521.53 317.723C520.332 316.634 518.979 315.619 518.232 314.158C519.313 313.625 520.48 313.686 521.66 313.638L521.029 312.741L521.495 311.308Z"/>
	<path fill="#E7ECEF" transform="matrix(0.234375 0 0 0.234375 -6.10352e-05 -6.10352e-05)" d="M730.481 307.665C731.656 308.28 731.718 308.326 732.316 309.507C731.992 312.02 730.586 315.148 728.802 316.977C727.755 316.648 727.094 316.433 726.178 315.804C726.144 315.613 726.092 315.424 726.077 315.231C725.875 312.599 728.945 309.619 730.481 307.665Z"/>
	<path fill="#E7ECEF" transform="matrix(0.234375 0 0 0.234375 -6.10352e-05 -6.10352e-05)" d="M758.61 312.431C761.527 312.976 774.394 319.378 776.528 321.579L776.183 322.944L774.981 323.306C769.356 322.045 762.849 316.176 758.61 312.431Z"/>
	<path fill="#E7ECEF" transform="matrix(0.234375 0 0 0.234375 -6.10352e-05 -6.10352e-05)" d="M863.152 241.175C863.928 241.093 864.05 240.975 864.776 241.337C861.739 243.168 851.239 245.177 849.882 247.236L850.765 248.772L850.1 249.154C848.496 247.669 846.083 245.44 845.686 243.239C845.977 243.235 846.271 243.191 846.561 243.225C852.343 243.891 857.454 242.105 863.152 241.175Z"/>
	<path fill="#E7ECEF" transform="matrix(0.234375 0 0 0.234375 -6.10352e-05 -6.10352e-05)" d="M688.385 316.205C690.361 316.029 692.741 315.633 694.706 315.931C696.093 316.14 696.634 316.534 697.413 317.644C697.103 320.452 694.539 322.257 692.558 324.019C692.063 325.161 691.826 325.76 690.76 326.441L689.942 326.135C687.212 322.529 691.496 322.252 691.703 318.735C691.007 317.319 689.724 316.879 688.385 316.205Z"/>
	<path fill="#E7ECEF" transform="matrix(0.234375 0 0 0.234375 -6.10352e-05 -6.10352e-05)" d="M865.527 232.161C865.975 232.187 866.4 232.443 866.811 232.619C865.855 234.982 854.797 236.711 852.17 237.585C849.576 238.448 847.138 239.686 844.705 240.917C844.624 240.841 844.533 240.775 844.464 240.689C843.569 239.576 843.147 238.908 843.171 237.503C847.356 234.826 860.123 233.279 865.527 232.161Z"/>
	<path fill="#E7ECEF" transform="matrix(0.234375 0 0 0.234375 -6.10352e-05 -6.10352e-05)" d="M586.979 270.158L587.287 270.469C587.544 271.469 587.89 272.594 587.695 273.631C586.83 278.215 573.5 283.993 569.601 286.491C569.218 283.839 568.691 281.187 568.235 278.545C574.383 275.507 580.746 273.007 586.979 270.158Z"/>
	<path fill="#E7ECEF" transform="matrix(0.234375 0 0 0.234375 -6.10352e-05 -6.10352e-05)" d="M553.74 535.415L554.179 535.522C556.14 537.474 555.542 544.602 555.596 547.483C552.263 549.263 549.091 550.39 545.466 551.389L544.79 550.738C544.125 547.992 542.711 544.052 543.76 541.334C545.056 537.978 550.656 536.734 553.74 535.415Z"/>
	<path fill="#E7ECEF" transform="matrix(0.234375 0 0 0.234375 -6.10352e-05 -6.10352e-05)" d="M877.906 245.635C878.482 245.56 878.72 245.509 879.252 245.497C881.196 245.45 883.075 247.624 884.462 248.873C875.973 251.716 867.299 253.331 858.611 255.383C857.659 255.564 856.752 255.618 855.784 255.654C854.045 254.974 853.141 253.538 852.017 252.125C860.561 249.695 869.254 247.649 877.906 245.635Z"/>
	<path fill="#2DD6D0" transform="matrix(0.234375 0 0 0.234375 -6.10352e-05 -6.10352e-05)" d="M772.619 285.467C773.615 285.3 773.168 285.194 773.969 285.741C773.889 285.906 773.824 286.08 773.728 286.236C772.23 288.667 768.892 290.549 766.285 291.575C762.789 292.95 758.829 293.461 755.189 294.436C746.686 296.715 738.242 299.143 729.695 301.263L728.856 301.099C728.575 299.899 728.478 299.306 728.869 298.126C729.824 297.161 730.819 296.746 732.093 296.348C734.638 295.552 737.366 295.217 739.962 294.58C750.698 291.947 762.407 289.684 772.619 285.467Z"/>
	<path fill="#2DD6D0" transform="matrix(0.234375 0 0 0.234375 -6.10352e-05 -6.10352e-05)" d="M772.297 271.063C772.889 270.946 772.501 270.973 773.445 271.265L773.68 273.546C771.679 276.245 735.055 283.205 727.99 285.446L727.367 285.141C726.892 283.871 726.664 283.202 726.818 281.813C731.052 279.958 736.354 279.293 740.874 278.277C751.335 275.927 761.943 273.829 772.297 271.063Z"/>
	<path fill="#2DD6D0" transform="matrix(0.234375 0 0 0.234375 -6.10352e-05 -6.10352e-05)" d="M772.821 278.049L773.31 278.084C774.217 278.959 774.072 279.248 774.304 280.443C774.161 280.702 774.099 281.029 773.873 281.221C772.029 282.793 735.745 291.491 729.639 293.395C728.658 293.571 729.15 293.644 728.194 293.025C728.063 291.644 727.904 290.509 728.357 289.16C734.47 286.132 742.827 285.321 749.549 283.813Q761.247 281.183 772.821 278.049Z"/>
	<path fill="#E7ECEF" transform="matrix(0.234375 0 0 0.234375 -6.10352e-05 -6.10352e-05)" d="M390.963 296.985C392.669 297.834 401.59 310.309 403.701 312.866C396.902 310.696 390.12 310.414 383.054 310.004C377.937 310.481 372.865 310.742 367.824 311.807C375.726 304.849 381.028 300.77 390.963 296.985Z"/>
	<path fill="#E7ECEF" transform="matrix(0.234375 0 0 0.234375 -6.10352e-05 -6.10352e-05)" d="M679.03 345.681C678.915 346.212 679.021 345.909 678.519 346.597C678.374 346.796 678.225 346.991 678.078 347.189C678.377 352.735 681.53 358.543 683.528 363.684C680.218 366.184 675.994 370.2 672.154 371.585C671.262 371.907 671.661 371.878 670.725 371.473L670.479 369.624C670.917 363.541 670.401 358.686 668.571 352.861C666.658 352.428 664.799 352.008 663.01 351.18C661.994 350.71 661.241 350.63 660.838 349.554C665.364 346.388 673.325 347.722 678.618 345.838C678.757 345.788 678.893 345.733 679.03 345.681Z"/>
	<path fill="#E7ECEF" transform="matrix(0.234375 0 0 0.234375 -6.10352e-05 -6.10352e-05)" d="M707.259 262.562C709.603 263.185 712.067 265.175 714.148 266.467C700.158 269.848 685.496 271.804 671.301 274.27C661.364 275.997 651.526 278.337 641.565 279.869C639.191 280.277 636.414 280.948 634.025 280.625L633.188 279.282C633.511 278.965 633.749 278.527 634.158 278.332C636.973 276.989 648.757 275.183 652.404 274.464C662.776 272.418 673.055 270.01 683.407 267.877C691.309 266.249 699.581 265.044 707.259 262.562Z"/>
	<path fill="#E7ECEF" transform="matrix(0.234375 0 0 0.234375 -6.10352e-05 -6.10352e-05)" d="M702.358 245.651C703.117 245.534 703.196 245.715 703.856 246.052C704.948 248.247 705.022 250.952 705.333 253.365C691.377 256.664 677.21 259.043 663.28 262.443C662.607 262.569 662.22 262.486 661.555 262.37C660.28 260.793 660.184 258.485 659.856 256.534C664.739 254.773 669.903 253.714 674.919 252.392C684.022 249.994 693.132 247.532 702.358 245.651Z"/>
	<path fill="#2DD6D0" transform="matrix(0.234375 0 0 0.234375 -6.10352e-05 -6.10352e-05)" d="M466.182 362.489C478.286 357.901 490.469 355.724 502.753 352.059C508.148 350.449 531.645 342.192 535.098 342.249C529.774 346.137 522.577 348.922 516.52 351.494C501.033 358.069 485.475 363.67 469.4 368.619C468.302 366.622 467.029 364.604 466.182 362.489Z"/>
	<path fill="#E7ECEF" transform="matrix(0.234375 0 0 0.234375 -6.10352e-05 -6.10352e-05)" d="M736.071 314.71C740.162 316.254 743.888 317.529 748.312 317.523C757.276 324.733 766.849 332.479 777.057 337.847L773.134 342.546L770.16 345.679C763.012 343.549 739.993 325.297 735.966 318.95C735.173 317.701 735.77 316.058 736.071 314.71Z"/>
	<path fill="#E7ECEF" transform="matrix(0.234375 0 0 0.234375 -6.10352e-05 -6.10352e-05)" d="M527.328 142.111C538.311 140.796 549.873 143.027 559.875 147.568C570.521 152.402 596.042 167.16 600.058 177.962L599.81 178.438L598.736 178.318C598.048 177.596 597.535 177.222 596.607 176.884C596.312 176.776 596.014 176.676 595.718 176.572C580.226 164.806 559.428 152.093 540.446 147.475C532.386 145.515 524.338 144.948 516.084 144.728Q521.656 143.206 527.328 142.111Z"/>
	<path fill="#E7ECEF" transform="matrix(0.234375 0 0 0.234375 -6.10352e-05 -6.10352e-05)" d="M555.318 553.081L555.84 553.718Q556.41 562.137 557.455 570.511C558.283 576.834 562.035 592.266 559.146 598.071C558.646 599.075 558.388 599.075 557.388 599.376C555.76 599.007 555 597.802 553.98 596.588C552.145 593.693 550.141 590.775 548.775 587.62C545.776 580.69 545.518 565.577 545.766 557.906C547.864 554.894 552 554.152 555.318 553.081Z"/>
	<path fill="#E7ECEF" transform="matrix(0.234375 0 0 0.234375 -6.10352e-05 -6.10352e-05)" d="M988.672 221.642L989.876 221.787C990.51 223.53 990.769 225.483 989.983 227.209C984.476 229.616 976.839 230.149 970.907 231.271C960.529 233.235 950.116 235.302 939.78 237.481Q926.403 240.333 913.077 243.414C907.493 244.727 901.031 247.018 895.307 247.188C893.77 246.292 892.397 245.239 890.986 244.159C898.146 241.753 905.626 240.545 912.983 238.885C923.824 236.438 934.617 233.863 945.484 231.515C959.898 228.4 974.196 224.388 988.672 221.642Z"/>
	<path fill="#E7ECEF" transform="matrix(0.234375 0 0 0.234375 -6.10352e-05 -6.10352e-05)" d="M782.259 261.943C787.882 261.928 790.394 266.608 794.131 270.138C792.629 278.275 790.863 298.402 785.838 304.173L780.136 305.465C778.867 305.358 777.643 305.218 776.444 304.759C773.94 303.801 770.284 302.174 769.284 299.475C768.731 297.979 779.116 292.702 781.185 287.658C784.167 280.387 778.677 269.514 782.259 261.943Z"/>
	<path fill="#E7ECEF" transform="matrix(0.234375 0 0 0.234375 -6.10352e-05 -6.10352e-05)" d="M832.588 238.855C833.531 238.945 833.898 239.041 834.685 239.617C837.567 241.724 849.228 259.385 849.508 262.592C850.147 269.927 849.284 276.559 848.338 283.828C844.941 285.131 841.652 286.168 838.078 286.864L836.106 287.245L835.596 286.748Q837.664 276.562 839.363 266.308C836.021 258.113 829.502 250.609 824.248 243.515C826.912 241.764 829.771 240.342 832.588 238.855Z"/>
	<path fill="#E7ECEF" transform="matrix(0.234375 0 0 0.234375 -6.10352e-05 -6.10352e-05)" d="M797.217 252.017C797.38 252.07 797.548 252.112 797.708 252.175C803.307 254.376 809.716 262.461 812.16 267.809C811.202 274.016 809.926 291.823 806.408 296.413C805.108 298.109 803.412 298.154 801.455 298.387L795.251 299.494Q797.154 283.705 799.697 268.007C796.358 264.758 792.414 260.647 790.141 256.581C792.316 254.391 794.201 252.86 797.217 252.017Z"/>
	<path fill="#E7ECEF" transform="matrix(0.234375 0 0 0.234375 -6.10352e-05 -6.10352e-05)" d="M732.375 320.538C733.954 320.431 734.515 321.365 735.561 322.387C745.439 332.042 756.351 340 767.525 348.059C764.491 351.648 761.736 355.387 758.986 359.192L755.94 363.239C754.118 361.428 752.442 359.528 750.774 357.576C744.58 350.325 727.909 331.977 728.679 322.182C729.8 321.072 730.876 320.973 732.375 320.538Z"/>
	<path fill="#E7ECEF" transform="matrix(0.234375 0 0 0.234375 -6.10352e-05 -6.10352e-05)" d="M816.305 244.673C822.513 250.345 829.511 258.374 832.7 266.226C831.806 274.122 830.103 282.071 828.722 289.904C824.958 291.289 821 292.142 817.109 293.096C816.064 293.301 816.619 293.319 815.454 292.909C814.005 287.868 818.396 275.138 818.87 269.253C819.416 262.481 809.796 253.704 805.591 248.679C809.097 247.044 812.483 245.4 816.305 244.673Z"/>
	<path fill="#E7ECEF" transform="matrix(0.234375 0 0 0.234375 -6.10352e-05 -6.10352e-05)" d="M783.198 249.532C783.541 249.484 784.047 249.606 784.396 249.651C784.776 251.433 783.695 253.602 783.118 255.29C781.968 255.711 780.825 256.147 779.762 256.761C776.173 258.836 774.273 261.934 773.304 265.934C758.184 268.726 743.105 272.463 728.117 275.901C727.523 276.053 727.2 275.991 726.602 275.911C725.264 272.729 725.912 267.392 725.922 263.948C744.649 257.956 764.305 254.996 783.198 249.532Z"/>
	<path fill="#E7ECEF" transform="matrix(0.234375 0 0 0.234375 -6.10352e-05 -6.10352e-05)" d="M520.656 208.87C522.605 209.478 524.64 209.855 526.633 210.294C528.134 211.798 529.561 213.545 530.444 215.488C533.627 222.496 531.85 230.444 529.172 237.29C527.241 242.226 524.91 247.472 519.848 249.702C518.736 249.954 517.543 250.346 516.404 250.107C514.679 249.745 512.045 246.123 511.274 244.623C507.687 237.643 507.241 228.939 509.728 221.55C511.762 215.507 515.092 211.741 520.656 208.87Z"/>
	<path fill="#272932" transform="matrix(0.234375 0 0 0.234375 -6.10352e-05 -6.10352e-05)" d="M517.512 216.503C519.731 216.181 521.66 216.337 523.52 217.693C525.122 218.861 525.936 220.67 526.248 222.584C527.29 228.974 523.854 238.086 520.015 243.168C518.774 243.521 518.046 243.508 516.778 243.294C514.085 241.502 513.637 238.105 512.843 235.174C513.411 232.59 514.655 230.132 515.111 227.552C516.151 221.66 513.123 222.647 517.512 216.503Z"/>
	<path fill="#E7ECEF" transform="matrix(0.234375 0 0 0.234375 -6.10352e-05 -6.10352e-05)" d="M516.888 220.136C518.556 220.746 520.793 221.661 521.668 223.343C522.761 225.443 522.332 226.874 521.722 229.028C520.063 226.924 517.82 225.813 516.205 223.698C515.875 222.235 516.309 221.437 516.888 220.136Z"/>
	<path fill="#2DD6D0" transform="matrix(0.234375 0 0 0.234375 -6.10352e-05 -6.10352e-05)" d="M611.146 317.892C611.479 316.72 611.805 315.628 612.419 314.566C613.896 312.009 616.617 310.759 619.308 309.803C629.734 306.1 641.489 304.594 652.28 301.825L700.735 289.267C706.71 287.691 712.698 285.719 718.675 284.281C719.555 285.227 719.769 285.289 719.894 286.551C719.179 287.581 718.46 288.016 717.31 288.443C715.388 289.156 713.303 289.392 711.34 289.979C701.032 293.058 690.653 295.512 680.254 298.224C664.61 302.303 649.149 307.081 633.534 311.273C628.84 312.533 623.451 313.128 618.983 314.864C616.795 315.715 614.776 316.805 613.24 318.601L613.523 319.579C619.45 318.87 624.976 317.406 630.713 315.919C634.756 314.871 638.887 314.178 642.937 313.082C656.564 309.391 670.072 305.124 683.662 301.276Q694.089 298.66 704.482 295.911C710.345 294.334 716.495 292.074 722.572 291.687C711.087 297.891 697.863 300.051 685.3 303.14C680.319 305.468 618.985 322.796 616.461 321.962L616.068 322.238L616.035 322.994C612.093 325.586 609.07 330.081 605.352 333.197Q608.195 325.524 611.146 317.892Z"/>
	<path fill="#E7ECEF" transform="matrix(0.234375 0 0 0.234375 -6.10352e-05 -6.10352e-05)" d="M278.955 639.41C280.636 623.458 286.183 607.611 292.962 593.126C300.916 576.13 312.104 561.008 321.955 545.14C331.325 530.047 340.669 515.135 350.51 500.332C353.702 495.53 356.437 489.667 360.615 485.708C360.25 488.239 359.366 490.362 358.624 492.776C353.839 508.352 345.142 518.797 336.23 532.079C333.605 535.99 330.324 540.272 328.717 544.712C327.45 544.851 326.166 544.924 324.949 545.321C319.951 552.816 316.09 561.056 311.754 568.943C303.142 584.605 293.67 599.645 288.572 616.948C287.122 621.871 285.444 627.098 284.642 632.163C284.044 635.947 284.201 639.836 283.295 643.566Q281.11 641.504 278.955 639.41Z"/>
	<path fill="#E7ECEF" transform="matrix(0.234375 0 0 0.234375 -6.10352e-05 -6.10352e-05)" d="M715.788 270.609C717.196 270.568 717.314 270.396 718.363 271.298C719.219 273.45 718.881 275.692 718.765 277.96Q682.835 285.79 647.107 294.498C634.879 297.461 622.56 300.179 610.398 303.396C609.285 303.861 608.521 304.265 607.288 304.173C607.312 304.024 607.316 303.869 607.361 303.725C608.22 300.947 617.725 293.529 620.389 291.688C628.137 291.204 635.543 288.419 643.121 286.844C667.426 281.789 691.535 275.892 715.788 270.609Z"/>
	<path fill="#2CA5A4" transform="matrix(0.234375 0 0 0.234375 -6.10352e-05 -6.10352e-05)" d="M360.615 485.708C360.906 486.308 361.076 486.793 361.237 487.444C362.31 491.8 364.707 494.398 365.142 499.439C366.089 510.401 360.832 525.478 365.779 535.139C368.873 536.969 371.23 539.417 373.664 542.029L373.863 543.021C368.734 541.715 363.475 540.412 358.304 539.301L357.297 540.257C355.086 539.712 352.763 538.478 350.488 538.645L350.25 539.29L352.152 541.269C351.373 542.686 350.516 541.366 350.324 543.314C352.086 546.822 354.055 548.881 354.275 552.976C346.046 549.734 337.359 546.606 328.717 544.712C330.324 540.272 333.605 535.99 336.23 532.079C345.142 518.797 353.839 508.352 358.624 492.776C359.366 490.362 360.25 488.239 360.615 485.708Z"/>
	<path fill="#2DD6D0" transform="matrix(0.234375 0 0 0.234375 -6.10352e-05 -6.10352e-05)" d="M599.796 318.452C597.274 323.989 594.696 329.497 592.533 335.186C592.335 335.23 592.137 335.271 591.94 335.317C558.531 343.012 526.013 365.852 498.844 386.168C495.485 388.68 482.648 399.415 479.099 398.995L478.475 397.387C477.63 397.504 477.266 397.634 476.522 397.993L476.511 397.831L477.568 397.292L476.817 396.58C491.222 382.372 505.541 368.296 522.938 357.693C532.645 351.777 543.267 346.573 553.537 341.7C563.939 336.765 575.064 332.79 585.162 327.325C588.124 325.722 590.42 323.587 593.199 321.879C594.618 321.007 595.802 320.678 596.973 319.386L599.796 318.452Z"/>
	<path fill="#E7ECEF" transform="matrix(0.234375 0 0 0.234375 -6.10352e-05 -6.10352e-05)" d="M435.541 247.529C438.991 243.527 448.565 232.454 454.041 232.011C454.889 231.943 455.007 232.314 455.602 232.826C455.82 236.714 450.747 239.205 449.762 242.978L449.53 243.85C446.527 255.385 451.164 263.996 456.991 273.683C464.626 286.376 474.374 297.74 484.397 308.584C489.562 314.173 496.094 319.992 500.14 326.404Q494.306 327.932 488.504 329.576C485.151 325.524 482.067 321.257 478.645 317.257C465.578 301.978 450.457 286.2 441.86 267.812C438.813 261.294 437.032 254.538 435.541 247.529Z"/>
	<path fill="#E7ECEF" transform="matrix(0.234375 0 0 0.234375 -6.10352e-05 -6.10352e-05)" d="M415.787 267.138L420.616 266.989C421.455 279.382 426.476 286.847 430.919 297.921C426.427 292.432 424.577 286.265 421.181 280.204C420.48 278.953 420.175 278.079 418.733 277.673C418.474 278.603 423.635 291.653 424.228 293.898L424.448 294.747C421.559 291.817 413.279 282.618 412.535 278.934C412.322 277.878 412.266 277.4 411.557 276.504C410.343 276.135 410.415 276.201 409.271 276.781C408.643 277.924 408.373 278.232 408.546 279.568C408.888 282.199 410.429 284.791 411.635 287.109C418.061 299.462 428.727 308.586 439.678 316.939C447.796 323.024 455.105 332.092 460.943 340.349C458.683 340.465 456.866 340.536 454.719 339.706C452.096 338.692 449.494 337.662 447.002 336.351C431.576 328.237 419.128 316.64 408.166 303.292C403.387 297.474 399.508 292.855 397.278 285.545C398.543 281.657 400.164 277.233 402.629 273.949C406.123 269.293 410.314 267.979 415.787 267.138Z"/>
	<path fill="#E7ECEF" transform="matrix(0.234375 0 0 0.234375 -6.10352e-05 -6.10352e-05)" d="M516.927 529.034C517.369 529.622 517.85 559.019 518.155 563.097C518.566 568.603 519.408 574.066 519.909 579.564C520.814 589.506 521.56 599.458 523.052 609.34C524.137 616.53 525.901 623.613 527.025 630.804C528.625 641.037 529.231 651.666 531.805 661.693C528.723 663.947 525.605 665.795 522.163 667.445Q520.229 668.405 518.283 669.338C516.699 667.688 517.543 663.711 517.268 661.48Q512.283 620.763 510.39 579.785Q509.833 568.586 509.669 557.375C509.625 550.509 510.007 543.36 508.965 536.56C511.384 533.544 513.786 531.244 516.927 529.034Z"/>
	<path fill="#2CA5A4" transform="matrix(0.234375 0 0 0.234375 -6.10352e-05 -6.10352e-05)" d="M435.541 247.529C437.032 254.538 438.813 261.294 441.86 267.812C450.457 286.2 465.578 301.978 478.645 317.257C482.067 321.257 485.151 325.524 488.504 329.576C482.104 331.518 475.575 333.539 469.007 334.822C453.86 320.937 436.851 294.217 431.197 274.47C428.52 265.118 430.889 255.916 435.541 247.529Z"/>
	<path fill="#E7ECEF" transform="matrix(0.234375 0 0 0.234375 -6.10352e-05 -6.10352e-05)" d="M458.725 349.39C472.932 345.756 486.952 340.906 501.039 336.79C534.54 327.001 568.721 317.639 603.151 311.738Q601.504 315.11 599.796 318.452L596.973 319.386C588.668 318.685 546.556 338.155 535.098 342.249C531.645 342.192 508.148 350.449 502.753 352.059C490.469 355.724 478.286 357.901 466.182 362.489C464.027 357.891 461.419 353.68 458.725 349.39Z"/>
	<path fill="#E7ECEF" transform="matrix(0.234375 0 0 0.234375 -6.10352e-05 -6.10352e-05)" d="M502.104 243.36L502.755 243.694C503.276 245.635 504.028 247.273 505.098 248.981C508.031 253.662 510.797 254.76 515.939 255.894L521.402 253.493C516.931 262.277 510.369 279.945 510.355 289.749C510.351 292.603 511.199 295.545 511.685 298.356C510.898 299.372 510.895 299.163 509.721 299.428C506.754 298.35 505.432 294.321 504.145 291.68C503.94 294.527 504.191 299.533 502.37 301.784C502.107 301.576 501.819 301.395 501.581 301.159C500.348 299.937 499.825 296.002 499.885 294.359C500.021 290.644 498.632 286.751 499.097 283.094C499.766 277.837 502.106 272.968 502.091 267.541L501.548 267.066C500.25 268.53 500.021 270.852 499.137 272.649C497.812 272.924 496.983 272.087 495.83 271.443C494.399 273.19 496.317 277.577 494.715 280.026C492.489 278.973 490.443 276.877 488.546 275.301C490.043 279.671 490.95 283.407 491.077 288.05L486.697 284.35L482.922 280.879C486.66 290.899 494.362 299.346 497.818 309.519C484.794 297.033 470.689 280.354 461.573 264.835C458.605 259.782 457.574 253.93 459.085 248.192C460.071 248.195 467.995 253.717 470.456 254.649C475.364 256.507 480.18 256.763 485.364 256.471C491.204 252.4 496.986 248.342 502.104 243.36Z"/>
	<path fill="#E7ECEF" transform="matrix(0.234375 0 0 0.234375 -6.10352e-05 -6.10352e-05)" d="M588.502 187.323C589.093 187.648 589.218 187.672 589.761 188.228C591.486 189.993 592.666 193.165 593.444 195.488C595.381 201.27 595.927 205.602 595.639 211.644C595.52 214.145 595.24 216.758 595.665 219.242C596.24 222.605 598.359 225.658 598.481 229.07L597.928 229.558C592.28 227.531 585 216.606 579.114 216.316C575.284 216.127 566.623 221.04 563.908 223.736C563.135 224.503 562.776 224.978 562.84 226.089C564.008 226.764 565.304 227.035 566.596 227.381L566.898 225.73C568.551 223.911 574.337 222.887 576.874 222.086C578.693 223.967 579.949 225.873 581.269 228.103C578.506 229.055 575.796 230.12 573.079 231.196C576 231.982 578.983 232.42 581.894 233.242C581.917 235.032 580.539 236.837 579.781 238.489L580.233 239.263C583.288 239.189 586.345 235.064 589.725 234.352C591.351 234.009 592.411 234.417 593.78 235.246C594.623 238.984 594.948 242.814 595.637 246.581C596.53 251.462 598.074 256.282 598.18 261.276C595.467 261.502 583.017 262.349 581.618 261.265C580.881 258.902 581.674 256.487 582.749 254.366C582.833 254.2 582.921 254.036 583.008 253.871C583.088 253.749 583.146 253.609 583.247 253.503C584.53 252.161 586.358 252.585 588.085 252.272C589.108 252.086 588.905 252.034 589.458 251.248L589.126 250.432C587.384 249.586 585.501 249.613 583.601 249.49C570.937 255.872 563.014 263.268 553.907 273.722C553.481 265.885 552.578 257.036 556.345 249.851C552.611 246.322 548.051 242.676 545.238 238.356C546.468 233.321 547.158 228.15 547.97 223.033C555.149 216.057 565.959 209.22 575.51 206.13C576.565 199.982 576.512 193.919 576.467 187.707C580.007 192.391 586.273 200.225 588.431 205.358C588.748 206.113 589.045 206.722 589.475 207.413L590.39 207.373C592.911 204.16 588.719 192.053 588.516 187.752C588.509 187.609 588.507 187.466 588.502 187.323Z"/>
	<path fill="#E7ECEF" transform="matrix(0.234375 0 0 0.234375 -6.10352e-05 -6.10352e-05)" d="M557.858 492.437L558.272 492.838C558.57 500.161 556.593 507.399 555.716 514.636C555.191 518.967 555.352 524.216 554.006 528.34C553.015 531.378 542.032 535.237 538.824 536.656C538.319 542.01 540.626 587.574 541.81 590.295C543.187 593.46 544.244 596.689 545.988 599.695C548.523 604.065 551.794 608.036 553.794 612.704C557.036 620.272 557.385 629.616 558.175 637.751C552.222 644.228 545.637 650.153 539.635 656.606C538.402 657.865 536.941 658.954 535.579 660.075C534.664 652.474 534.693 644.728 533.42 637.183C531.251 624.329 527.545 611.18 526.357 598.246C524.92 582.595 523.477 566.791 522.664 551.096C522.221 542.536 523.504 532.97 521.47 524.687C533.286 516.102 547.042 502.598 557.858 492.437Z"/>
	<path fill="#2DD6D0" transform="matrix(0.234375 0 0 0.234375 -6.10352e-05 -6.10352e-05)" d="M703.061 321.034C705.117 321.002 707.187 321.136 709.243 321.213C712.734 329.886 717.26 339.166 722.442 346.943C736.422 367.925 759.783 390.616 782.661 401.663C780.284 403.836 778.487 406.656 776.193 408.977C756.794 397.51 740.145 381.848 726.136 364.271C719.601 356.071 713.693 347.24 708.176 338.332C706.472 335.58 703.985 329.603 701.517 328.099L700.746 328.584C699.938 333.738 707.091 344.411 709.537 348.98C722.113 370.357 739.841 391.454 760.516 405.419C764.869 408.359 769.588 410.489 774.133 413.084C770.511 419.226 766.25 424.964 762.656 431.139C742.197 417.052 722.354 400.801 707.819 380.459C704.715 376.116 686.495 349.317 686.647 345.222C686.674 344.495 688.904 343.018 689.329 342.09C690.423 339.7 690.728 336.709 691.156 334.132C695.464 329.767 699.931 326.439 703.061 321.034Z"/>
	<path fill="#272932" transform="matrix(0.234375 0 0 0.234375 -6.10352e-05 -6.10352e-05)" d="M692.531 334.28C695.434 336.003 697.887 343.036 699.788 346.065C705.882 355.775 713.229 366.36 720.527 375.228C730.055 386.805 741.085 398.413 752.945 407.638C756.65 410.519 760.833 412.753 764.587 415.613C764.65 417.035 763.66 418.106 762.941 419.315C762.378 420.068 762.747 419.715 761.753 420.278C758.416 419.141 754.953 416.19 752.053 414.146C729.21 398.05 711.239 373.94 697.518 349.913C694.982 345.473 691.104 339.528 692.531 334.28Z"/>
	<path fill="#2CA5A4" transform="matrix(0.234375 0 0 0.234375 -6.10352e-05 -6.10352e-05)" d="M283.295 643.566C284.201 639.836 284.044 635.947 284.642 632.163C285.444 627.098 287.122 621.871 288.572 616.948C293.67 599.645 303.142 584.605 311.754 568.943C316.09 561.056 319.951 552.816 324.949 545.321C330.376 548.825 337.449 550.011 343.213 553.168C343.574 555.001 344.704 566.861 345.329 567.662C345.969 568.483 345.738 568.159 346.266 569.181C345.415 571.461 344.209 570.226 345.387 573.183C340.447 584.695 334.292 595.789 329.139 607.252C327.107 611.773 324.716 616.481 323.63 621.334C322.228 627.596 322.336 634.562 323.248 640.884C323.634 643.555 323.892 646.95 324.94 649.451C326.184 652.419 327.961 654.041 327.836 657.397C327.632 662.917 331.62 662.706 330.842 666.738L331.44 667.534C332.517 667.109 332.129 667.457 332.677 666.579L333.401 667.187L333.08 666.091L332.531 666.845L333.366 666.906L333.815 672.695C317.131 666.394 295.701 656.288 283.295 643.566Z"/>
	<path fill="#E7ECEF" transform="matrix(0.234375 0 0 0.234375 -6.10352e-05 -6.10352e-05)" d="M674.76 319.736C675.977 319.593 676.006 319.58 677.053 320.209C678.636 323.067 681.161 327.279 680.109 330.646C679.198 333.56 644.489 339.831 639.575 341.911L638.678 342.296L640.175 347.702C646.241 351.738 653.384 354.298 660.059 357.144C660.819 360.025 661.253 363.068 661.797 366C655.707 366.769 647.309 364.159 642.283 365.217C641.207 366.023 640.783 366.47 640.277 367.721C641.682 371.846 653.586 371.634 657.41 373.932C658.813 374.776 659.762 375.991 660.002 377.651C660.203 379.039 659.705 379.777 658.888 380.797C654.372 382.943 647.509 381.839 642.555 381.745C641.693 382.545 641.787 382.76 641.497 383.852C644.038 388.248 654.88 384.366 657.194 387.132C658.045 388.149 658.374 390.102 658.203 391.378C657.559 396.179 645.516 392.365 642.346 392.514C642.314 392.516 641.029 392.669 640.859 392.86C640.616 393.132 640.166 394.41 639.973 394.826C638.321 398.384 636.821 399.317 633.56 401.403C622.659 407.253 611.588 410.017 599.229 408.202Q598.861 406.678 598.415 405.174C595.822 396.548 586.882 386.088 579.766 380.744C577.015 378.678 573.798 377.079 570.773 375.45Q573.22 372.447 575.738 369.503C587.609 355.725 600.769 344.231 615.968 334.259C619.661 331.837 623.362 329.163 627.527 327.614C632.728 325.679 638.988 325.644 644.473 324.722C654.549 323.027 664.548 320.475 674.76 319.736Z"/>
	<path fill="#E7ECEF" transform="matrix(0.234375 0 0 0.234375 -6.10352e-05 -6.10352e-05)" d="M670.023 383.42L670.372 383.201C676.438 379.448 682.599 376.761 687.452 371.253C693.888 381.641 701.624 391.673 709.523 401.004C713.127 405.26 717.79 409.168 720.804 413.824C712.623 423.879 679.572 453.976 667.224 455.302C667.036 455.121 666.855 454.934 666.661 454.76C665.471 453.692 651.843 449.663 649.314 448.625C635.742 443.056 623.718 434.502 609.742 429.936C620.967 444.38 643.271 455.885 660.398 461.57C662.895 462.399 666.729 464.123 669.312 464.059C670.999 464.018 673.928 461.825 675.545 461.089C690.397 454.331 704.729 440.669 715.247 428.259C718.4 424.538 721.042 420.35 724.257 416.713L730.151 421.492C711.242 442.967 697.539 461.281 668.722 469.731C651.632 464.692 635.534 458.289 619.781 449.912C613.993 446.835 608.578 443.077 602.792 440.02C605.386 435.528 606.37 431.686 606.588 426.482C619.253 426.589 635.542 423.075 645.378 414.579C646.297 414.04 647.267 413.698 648.256 413.31C648.305 411.02 648.385 409.545 650.195 407.924C655.055 403.573 662.145 403.331 668.434 397.421C668.622 392.673 669.247 388.105 670.023 383.42Z"/>
	<path fill="#050404" transform="matrix(0.234375 0 0 0.234375 -6.10352e-05 -6.10352e-05)" d="M671.019 410.224C671.459 410.392 671.578 410.412 672.016 410.723C677.811 414.829 678.613 422.971 679.362 429.397C678.932 429.411 678.465 429.268 678.042 429.186C674.542 423.863 672.122 416.476 671.019 410.224Z"/>
	<path fill="#050404" transform="matrix(0.234375 0 0 0.234375 -6.10352e-05 -6.10352e-05)" d="M645.378 414.579C646.297 414.04 647.267 413.698 648.256 413.31L649.174 417.486C650.596 424.175 650.196 430.446 650.772 437.162C648.22 431.161 646.124 425.417 645.757 418.848C645.451 417.568 645.487 415.91 645.378 414.579Z"/>
	<path fill="#E7ECEF" transform="matrix(0.234375 0 0 0.234375 -6.10352e-05 -6.10352e-05)" d="M354.275 552.976C354.055 548.881 352.086 546.822 350.324 543.314C350.516 541.366 351.373 542.686 352.152 541.269L350.25 539.29L350.488 538.645C352.763 538.478 355.086 539.712 357.297 540.257L358.304 539.301C363.475 540.412 368.734 541.715 373.863 543.021C374.455 543.322 374.998 543.553 375.621 543.778C380.49 545.531 385.639 548.632 390.585 550.658Q404.528 556.251 419 560.283C434.856 564.867 453.472 570.483 469.469 563.332C481.422 557.989 490.41 548.571 501.481 542.022C501.582 557.547 501.306 573.088 501.525 588.608C501.611 594.729 502.871 600.92 502.295 607.017C501.775 612.528 483.917 676.74 480.728 681.799C470.164 683.339 458.906 683.01 448.188 683.687C420.429 685.441 392.23 687.305 364.821 681.551C354.19 679.32 344.133 676.008 333.815 672.695L333.366 666.906L332.531 666.845L333.08 666.091L333.401 667.187L332.677 666.579C332.129 667.457 332.517 667.109 331.44 667.534L330.842 666.738C331.62 662.706 327.632 662.917 327.836 657.397C327.961 654.041 326.184 652.419 324.94 649.451C323.892 646.95 323.634 643.555 323.248 640.884C322.336 634.562 322.228 627.596 323.63 621.334C324.716 616.481 327.107 611.773 329.139 607.252C334.292 595.789 340.447 584.695 345.387 573.183C344.209 570.226 345.415 571.461 346.266 569.181C345.738 568.159 345.969 568.483 345.329 567.662C344.704 566.861 343.574 555.001 343.213 553.168C337.449 550.011 330.376 548.825 324.949 545.321C326.166 544.924 327.45 544.851 328.717 544.712C337.359 546.606 346.046 549.734 354.275 552.976Z"/>
	<path fill="#272932" transform="matrix(0.234375 0 0 0.234375 -6.10352e-05 -6.10352e-05)" d="M324.949 545.321C326.166 544.924 327.45 544.851 328.717 544.712C337.359 546.606 346.046 549.734 354.275 552.976C361.249 556.75 368.356 559.884 375.521 563.264C387.202 568.776 398.483 574.06 410.973 577.553C421.882 580.605 436.78 583.048 446.838 586.796C448.617 587.459 450.648 588.292 451.465 590.075C451.321 593.364 449.614 607.991 447.59 609.796C447.477 609.897 446.482 610.607 446.397 610.669C443.901 612.49 443.518 616.394 442.905 619.305C441.033 628.19 437.816 651.469 430.097 656.621C425.642 659.595 419.58 659.717 414.401 660.056C405.962 660.607 397.929 660.793 389.51 659.546C376.414 657.607 348.638 653.434 340.85 642.228C337.675 637.659 338.271 631.27 339.356 626.094C342.401 611.576 349.925 592.579 357.24 579.64C359.955 574.839 363.295 570.449 366.229 565.79C361.875 561.477 349.089 556.562 343.213 553.168C337.449 550.011 330.376 548.825 324.949 545.321Z"/>
	<path fill="#E7ECEF" transform="matrix(0.234375 0 0 0.234375 -6.10352e-05 -6.10352e-05)" d="M373.546 570.825C379.917 571.912 386.164 576.128 392.103 578.746C401.693 582.973 414.371 587.389 424.651 589.184C428.507 589.858 443.104 590.912 445.024 592.83C445.348 596.913 444.495 601.676 443.161 605.545C441.26 606.711 439.268 607.712 437.293 608.746Q433.087 610.114 428.789 611.159Q424.492 612.203 420.127 612.919Q415.762 613.635 411.356 614.017Q406.95 614.399 402.527 614.446Q400.65 613.43 398.882 612.235C393.012 608.239 371.442 587.786 370.473 580.7C370.034 577.491 371.637 573.369 373.546 570.825Z"/>
	<path fill="#050404" transform="matrix(0.234375 0 0 0.234375 -6.10352e-05 -6.10352e-05)" d="M382.372 586.331C384.47 586.67 386.065 587.534 387.947 588.462C394.55 591.715 401.285 595.247 408.369 597.33C412.494 598.543 417.983 598.474 421.713 600.55L421.823 601.49Q418.55 602.116 415.218 602.176C402.597 602.499 391.169 594.647 382.372 586.331Z"/>
	<path fill="#E7ECEF" transform="matrix(0.234375 0 0 0.234375 -6.10352e-05 -6.10352e-05)" d="M364.015 593.19C366.449 595.002 368.6 598.134 370.621 600.421C377.083 607.735 385.105 617.27 394.159 621.298C405.614 626.393 427.52 619.149 438.496 614.7C436.896 618.408 436.507 622.745 435.674 626.688C434.127 634.01 432.288 641.597 429.487 648.534C428.801 649.592 427.899 650.275 426.955 651.096C422.414 651.877 417.727 652.797 413.113 652.945C402.033 653.3 383.768 650.646 373.035 647.667C367.988 646.265 355.096 643.274 352.729 638.049C349.828 631.645 361.36 601.017 364.015 593.19Z"/>
	<path fill="#E7ECEF" transform="matrix(0.234375 0 0 0.234375 -6.10352e-05 -6.10352e-05)" d="M295.081 520.838C297.284 524.081 301.033 531.18 304.446 532.857C304.895 532.66 305.084 532.615 305.48 532.237C306.382 531.375 306.739 530.252 306.683 529.06C306.436 523.832 305.042 518.333 304.527 513.057C303.366 501.167 303.351 488.719 304.181 476.786C304.538 471.657 305.531 466.589 306.096 461.48C310.906 417.95 320.557 372.649 348.519 337.639C351.662 333.703 354.371 328.718 358.266 325.534C364.909 320.104 379.973 318.503 388.295 319.268C392.98 319.699 397.437 320.739 401.757 322.616C413.298 327.631 431.588 341.702 439.669 351.365C436.79 349.642 433.874 348.238 430.805 346.886C434.409 352.344 436.661 359.152 439.404 365.119C435.632 360.024 431.862 356.284 426.96 352.242C432.077 360.736 438.797 367.957 443.697 376.748C429.832 370.044 414.757 367.121 399.393 367.045C418.017 371.711 438.927 377.856 453.494 390.952C445.856 388.844 432.391 388.571 424.906 391.552C423.801 391.993 423.492 392.375 423.034 393.434C424.019 393.763 423.631 393.784 424.49 393.613C425.772 393.357 426.877 393.185 428.186 393.278C451.926 394.957 458.313 400.427 473.486 417.33C466.456 420.609 459.222 422.443 451.93 424.965C438.016 429.776 430.334 436.633 419.638 446.02C430.893 439.695 448.014 432.458 460.689 430.136C451.516 438.977 442.396 446.062 435.133 456.8C438.871 454.64 442.306 452.143 445.668 449.443Q443.031 456.107 440.094 462.645C448.231 453.24 449.89 448.324 461.08 441.096C458.184 453.554 457.019 464.306 458.763 477.023C460.201 465.032 465.48 452.13 469.825 440.889C471.46 436.657 473.207 431.773 476.353 428.407C487.425 416.562 525.982 396.684 541.798 389.446C550.329 385.542 559.105 382.34 567.662 378.541C575.888 382.568 584.497 393.24 587.895 401.656C591.886 411.543 589.447 419.951 585.448 429.23C584.259 426.475 583.602 423.551 582.318 420.815C575.305 405.866 564.172 393.654 549.523 386.007C552.325 389.334 555.665 392.244 558.533 395.537Q561.49 398.979 564.132 402.668Q566.774 406.357 569.081 410.264Q571.388 414.172 573.342 418.267Q575.295 422.362 576.881 426.614C578.122 429.411 579.764 432.053 580.735 434.954C579.129 440.863 572.931 447.393 569.288 452.272C547.514 481.431 523.258 508.599 494.223 530.768C490.348 533.728 473.592 546.019 469.797 546.711C469.326 546.797 468.864 546.336 468.391 546.413C467.998 546.478 466.578 547.574 466.213 547.805C460.831 551.213 456.278 553.306 449.645 552.274C443.945 551.387 438.724 548.531 433.743 545.774C415.491 535.676 400.76 522.4 388.209 505.773C373.747 486.614 364.206 463.144 355.225 441.032C350.566 429.562 345.68 418.799 343.431 406.483C342.029 398.802 342.246 390.331 343.365 382.633C345.665 366.806 353.181 348.639 366.35 338.806C369.001 336.221 372.549 334.705 376.033 333.638C379.112 332.045 382.288 330.568 385.252 328.769C380.837 330.062 375.925 331.04 371.687 332.741C359.3 337.715 349.948 350.186 343.805 361.542C335.354 377.164 332.472 396.519 335.508 413.962C336.541 419.894 338.901 426.227 338.948 432.235C338.953 432.863 338.91 432.587 339.113 433.176C340.688 434.738 341.088 438.434 341.619 440.588C339.075 442.231 334.27 446.542 333.151 449.296C333.059 449.521 333.083 449.778 333.05 450.018C333.917 449.986 334.632 449.876 335.477 449.71C336.072 450.289 336.659 450.871 337.238 451.467C340.02 449.944 342.747 449.039 345.781 448.15C344.483 454.073 342.299 457.693 339.55 462.955C340.306 463.089 341.551 463.497 342.278 463.439C344.062 463.296 344.524 460.921 346.097 462.523C345.707 468.369 331.074 476.255 328.046 482.453C329.052 482.454 342.622 473.467 345.537 472.137C343.706 476.794 336.762 483.748 336.169 487.212C337.079 487.356 337.959 487.549 338.853 487.766C338.295 491.941 325.621 501.144 321.8 504.411C327.659 504.197 330.679 502.27 335.673 499.476C331.27 506.731 324.009 512.438 319.744 519.71C319.255 520.544 318.941 520.906 319.191 521.871L328.685 519.539C323.924 525.694 319.186 531.952 314.02 537.775C310.61 541.619 306.672 545.109 303.427 549.077C302.568 550.127 301.846 550.944 301.599 552.315C303.415 553.369 306.001 550.947 307.907 551.948C307.56 554.498 286.006 588.036 282.629 594.301C277.412 603.984 272.87 613.874 269.587 624.39C264.819 618.847 259.518 612.955 257.428 605.795C260.607 597.245 265.14 589.059 269.113 580.847C272.46 573.931 275.363 566.595 279.496 560.109C281.123 562.181 283.772 565.929 286.303 566.782C290.736 563.189 286.881 560.746 287.609 556.343C289.56 544.547 290 531.904 295.081 520.838Z"/>
	<path fill="#2CA5A4" transform="matrix(0.234375 0 0 0.234375 -6.10352e-05 -6.10352e-05)" d="M339.55 462.955C340.306 463.089 341.551 463.497 342.278 463.439C344.062 463.296 344.524 460.921 346.097 462.523C345.707 468.369 331.074 476.255 328.046 482.453C325.143 482.24 324.191 484.329 321.717 485.056C320.738 485.343 320.628 485.298 319.747 484.767C319.351 479.767 329.435 473.613 332.838 470.402C335.257 468.119 337.44 465.523 339.55 462.955Z"/>
	<path fill="#2CA5A4" transform="matrix(0.234375 0 0 0.234375 -6.10352e-05 -6.10352e-05)" d="M339.113 433.176C340.688 434.738 341.088 438.434 341.619 440.588C339.075 442.231 334.27 446.542 333.151 449.296C333.059 449.521 333.083 449.778 333.05 450.018C333.917 449.986 334.632 449.876 335.477 449.71C336.072 450.289 336.659 450.871 337.238 451.467C333.109 453.526 324.036 455.465 319.419 454.721C318.097 454.509 317.749 454.117 317.049 453.039C319.933 450.655 323.451 449.088 326.587 447.053C330.851 444.286 336.066 438.451 338.619 434.056C338.788 433.765 338.948 433.469 339.113 433.176Z"/>
	<path fill="#272932" transform="matrix(0.234375 0 0 0.234375 -6.10352e-05 -6.10352e-05)" d="M563.983 410.816C569.796 415.655 572.902 420.489 576.368 427.098C577.34 432.337 576.849 435.151 573.813 439.561C559.08 460.954 540.788 480.605 522.47 498.931C517.675 503.729 512.916 509.126 507.665 513.375C507.747 512.213 508.241 511.668 509.01 510.813C516.791 502.173 525.46 494.387 533.424 485.923C540.645 478.248 547.14 470.003 554.084 462.093C559.322 456.127 570.63 444.707 573.191 437.476C574.262 434.452 573.701 430.998 572.392 428.147C570.265 422.027 567.666 416.162 563.983 410.816Z"/>
	<path fill="#2CA5A4" transform="matrix(0.234375 0 0 0.234375 -6.10352e-05 -6.10352e-05)" d="M366.35 338.806C369.001 336.221 372.549 334.705 376.033 333.638C370.682 341.715 369.063 351.477 367.55 360.911C371.334 358.052 374.57 354.576 378.355 351.76C377.024 356.509 369.935 371.856 372.24 375.959C372.346 376.148 372.462 376.332 372.572 376.52C374.079 379.09 373.902 383.091 374.448 386.02C375.602 392.21 377.605 398.255 379.319 404.31C381.137 410.734 382.58 417.394 384.655 423.723C385.124 425.153 387.195 427.03 387.192 427.102L385.948 427.286L386.143 426.974L387.161 427.405L387.123 428.075C387.051 429.473 386.873 430.654 387.501 431.952C388.676 432.001 389.344 431.006 390.183 430.232C393.783 426.91 396.957 423.271 400.708 420.079C399.215 427.429 398.72 434.878 396.963 442.188C399.372 448.328 402.45 454.232 405.324 460.163C414.159 478.398 421.035 490.52 435.945 504.733C440.069 508.664 445.01 513.077 450.316 515.318C451.091 515.646 451.878 515.88 452.683 516.12C463.879 509.224 469.32 495.818 477.861 486.113C476.677 496.613 475.914 507.141 474.853 517.651C484.489 506.267 493.025 489.163 499.478 475.657C500.453 483.844 500.886 492.217 502.867 500.239C519.641 478.412 539.924 458.812 559.355 439.346C562.222 436.473 565.516 431.714 568.765 429.466C569.755 428.781 571.241 428.476 572.392 428.147C573.701 430.998 574.262 434.452 573.191 437.476C570.63 444.707 559.322 456.127 554.084 462.093C547.14 470.003 540.645 478.248 533.424 485.923C525.46 494.387 516.791 502.173 509.01 510.813C508.241 511.668 507.747 512.213 507.665 513.375C497.939 524.48 475.711 542.081 460.945 544.197C446.649 546.246 432.617 536.297 421.933 528.047C414.002 521.923 407 514.391 400.616 506.704C384.625 487.448 376.133 471.143 365.916 448.618C360.365 436.38 354.104 423.678 351.276 410.463C350.441 406.559 350.139 402.444 349.634 398.479C348.964 397.99 348.638 397.679 348.097 397.012C348.186 396.848 348.279 396.686 348.363 396.52C348.491 396.267 348.606 396.008 348.734 395.756C349.132 394.97 349.461 394.458 349.576 393.575C349.891 391.148 349.543 388.448 349.588 385.972C349.685 380.605 350.445 374.85 351.795 369.655C353.749 362.131 357.138 354.422 361.066 347.701C362.551 345.161 365.374 342.056 366.23 339.344C366.285 339.169 366.31 338.986 366.35 338.806Z"/>
	<path fill="#2CA5A4" transform="matrix(0.234375 0 0 0.234375 -6.10352e-05 -6.10352e-05)" d="M199.824 31.1765L681.395 30.9803Q733.825 31.2605 786.254 31.0111L813.601 30.9535C818.23 30.9462 824.087 30.3117 828.554 31.342L829.262 32.9517C832.772 35.5926 841.468 32.2553 846.032 33.3366L846.748 35.2443C849.047 35.8554 852.115 35.4638 854.497 35.3312C858.836 35.0898 861.04 37.6073 864.843 38.7797C866.916 39.4187 868.731 37.6672 871.063 38.7088C873.509 39.8006 875.583 42.3278 878.207 42.8311C879.062 42.233 879.691 41.7477 880.729 41.5471C881.796 42.7243 882.769 43.981 883.762 45.2206C885.193 45.5802 885.588 45.0867 886.873 44.4336L887.832 44.8114L887.888 46.4919C891.728 47.7595 895.465 49.3007 899.217 50.8057C899.612 51.5416 899.795 52.071 899.978 52.9056C900.039 53.1839 900.089 53.4646 900.144 53.7441C901.669 54.8442 903.685 53.8247 905.448 54.6266C906.789 56.3983 908.236 58.2769 909.963 59.6855C913.303 62.4108 917.069 62.4394 919.066 66.873C919.56 67.9695 919.344 67.6269 920 68.6311C921.938 71.5976 920.928 69.4143 923.496 70.0491C925.233 71.8332 928.63 74.4658 929.795 76.5206C930.198 77.2321 929.572 78.3303 930.226 79.1495C932.959 82.577 936.777 82.2159 937.587 87.1321C941.658 91.585 943.368 95.3377 945.418 100.869C946.344 100.701 946.735 100.78 947.601 101.14C948.108 101.829 948.32 102.255 948.369 103.119C948.491 105.275 948.787 106.121 949.918 107.951C950.785 109.353 956.989 120.63 957.205 121.813C957.272 122.175 956.83 123.397 956.729 123.821C958.848 130.162 960.941 136.747 962.37 143.276C962.962 145.982 962.973 149.156 963.781 151.753C964.092 152.753 964.665 153.335 965.373 154.072C966.478 155.221 965.514 161.007 965.64 162.899C966.572 163.624 966.207 163.423 967.183 163.893C967.396 163.996 967.613 164.091 967.828 164.19C968.793 167.714 968.182 180.718 968.182 185.2C966.682 186.818 964.103 187.737 962.131 188.707C959.619 196.331 960.504 205.957 960.399 213.932C960.314 213.99 960.225 214.042 960.144 214.106C959.784 214.393 959.447 214.709 959.076 214.982C957.159 216.388 931.449 222.029 929.002 221.591C928.104 218.583 928.5 214.787 928.502 211.64C928.506 205.053 929.428 180.658 928.214 175.59C927.943 175.473 926.998 175.077 926.783 174.928C924.425 173.293 926.889 163.914 925.705 160.829C925.445 160.153 924.462 160.045 923.828 159.802C922.621 157.188 924.689 153.632 923.772 150.756L921.857 149.953C920.589 147.271 921.127 143.694 920.038 140.75C916.521 138.294 919.69 136.066 918.201 132.979C917.552 131.634 916.048 131.758 915.363 130.037Q915.475 129.453 915.571 128.866C916.163 125.109 912.685 121.404 910.597 118.478C910.633 117.077 910.812 115.938 909.931 114.749C905.615 112.978 905.457 108.833 902.9 105.329C898.481 104.556 901.921 102.94 900.027 101.214C898.649 99.9582 896.475 100.167 895.107 99.0628C893.091 97.4345 892.836 92.9247 890.71 90.9214C890.031 90.2821 888.367 90.55 887.445 90.5389C886.131 89.4172 886.372 88.0537 885.614 86.5945C884.449 84.353 883.603 86.9743 881.823 85.8575C879.631 84.4828 877.594 81.1439 875.108 80.4104C873.721 80.0011 872.188 80.1229 870.749 79.7645C870.899 78.9306 870.936 78.5372 870.81 77.6746C869.165 76.9536 868.937 77.2492 867.272 77.7443C865.68 76.9352 866.015 75.529 864.516 74.5241L863.245 75.4662L862.335 75.3058L861.535 73.4662C860.214 72.6006 857.902 72.9755 856.268 72.8515C855.869 72.3135 855.642 71.9081 855.397 71.2701C855.319 71.067 855.251 70.8606 855.177 70.6558C851.694 69.7447 848.142 71.2322 844.744 70.2704L843.856 68.6389C841.982 67.4756 837.559 68.0229 835.261 67.99C829.249 67.9038 823.38 66.6353 817.377 66.5493C791.377 66.1769 765.319 66.5415 739.314 66.5645L597.472 66.772L361.502 66.5649Q299.622 66.3936 237.742 66.8929L210.437 66.9447C206.589 66.9492 202.007 66.4153 198.302 67.199C198.225 67.4337 198.032 68.065 197.907 68.2504C196.494 70.337 184.284 68.3817 180.766 69.3402L180.064 71.2617C178.01 71.957 175.485 71.3082 173.345 71.1611C169.461 70.894 160.807 75.1641 157.84 77.7465C156.294 77.8767 154.378 77.8859 152.957 78.4976C151.361 79.1841 139.593 86.4743 139.283 87.2374C138.849 88.305 139.876 88.4127 138.817 89.5801C137.785 89.5742 136.948 89.5645 135.934 89.8038C133.759 90.3166 135.02 91.6323 134.214 92.9132L131.949 92.9106C130.51 93.7475 129.566 96.084 128.691 97.5006L127.278 97.572C125.681 98.8882 126.75 100.789 125.572 102.549C124.744 102.483 123.933 102.451 123.103 102.449C120.718 105.793 111.543 116.782 110.478 119.31C109.277 122.16 108.741 125.665 108.079 128.701C103.877 129.813 107.098 132.535 105.37 135.327L103.326 135.724C101.165 138.041 104.067 141.626 103.462 144.41L101.327 145.327C99.8053 147.694 100.471 150.362 100.709 152.984C100.792 153.909 100.774 154.83 100.733 155.758C100.684 156.854 98.4136 156.54 97.8208 157.213C96.0468 159.228 98.9659 167.742 97.225 169.209C96.4261 169.882 95.9701 169.258 95.0345 170.369C93.8024 179.047 93.8537 296.32 95.0597 299.386C95.5232 299.57 96.3842 299.834 96.8045 300.155C98.1795 301.202 97.7717 302.603 98.2777 304.077C99.0435 306.308 105.358 314.191 107.139 317.004C108.451 319.075 109.47 321.794 110.97 323.643C111.424 324.203 112.163 324.562 112.766 324.926C113.669 325.472 113.656 325.728 113.851 326.805C114.816 332.138 127.466 348.417 130.562 356.919C130.9 357.848 130.586 357.401 131.624 358.077L132.272 357.4L132.824 357.609C134.539 361.724 160.169 404.997 161.928 406.262C162.773 406.87 163.422 407.439 164.182 408.149C164.299 408.873 164.363 409.487 164.332 410.227C164.322 410.44 164.304 410.653 164.29 410.867C167.202 414.297 179.913 433.993 180.234 437.525C180.34 438.687 180.184 438.693 180.897 439.709C181.15 439.667 181.908 439.525 182.138 439.562C184.277 439.904 187.649 449.382 188.85 451.585C189.773 451.879 190.098 452.024 190.887 452.649L190.897 453.273C190.904 453.558 190.923 453.842 190.925 454.127C190.941 458.054 196.092 462.403 198.386 465.602C198.535 466.883 198.562 468.057 199.318 469.151C200.561 469.63 201.331 469.844 202.18 470.924C202.219 472.303 202.347 473.728 203.015 474.96C207.157 482.598 212.536 489.772 216.89 497.325C218.972 500.938 220.381 506.014 222.952 509.173C227.443 514.693 230.65 521.425 234.363 527.48C240.802 537.982 247.894 548.445 253.551 559.375C254.753 561.698 255.817 564.011 256.413 566.571C252.795 574.526 248.931 582.249 245.106 590.094C242.76 594.907 241.221 599.551 237.705 603.725C234.128 596.321 228.401 589.188 223.977 582.173C222.203 579.359 221.126 576.321 219.48 573.525C218.336 571.582 215.671 570.184 214.592 568.218C214.148 567.409 214.69 565.653 214.355 564.802C213.527 562.698 209.538 558.609 208.063 556.353C205.169 551.93 203.182 546.658 200.437 542.074C198.259 538.438 194.957 535.523 193.141 531.709C193.207 530.451 193.396 529.247 192.863 528.067C192.08 527.92 191.368 527.732 190.615 527.472C182.042 511.108 171.261 495.731 161.848 479.823C158.837 474.733 155.322 469.68 153.007 464.237C152.375 462.75 151.865 463.521 150.882 462.646C149.363 461.295 140.776 442.833 138.717 441.395C136.393 439.773 136.547 437.501 135.749 434.974C135.054 434.739 134.183 434.529 133.634 434.014C131.442 431.958 128.666 425.131 127.02 422.248C124.175 417.261 120.425 412.706 117.727 407.672C117.409 407.079 117.235 406.485 117.229 405.808C117.226 405.506 117.255 405.204 117.268 404.902C116.422 403.474 114.628 403.277 113.442 402.084C113.264 400.485 113.17 399.041 112.224 397.677C109.499 393.748 107.336 389.573 104.734 385.602C102.112 381.6 98.9631 377.898 96.8288 373.604C96.434 372.81 96.2819 372.896 95.5158 372.517L94.7032 372.805C93.9171 385.231 94.5922 398.076 94.4759 410.554Q94.0119 455.033 94.2332 499.514L94.3771 713.641C94.3992 728.355 93.5606 846.145 94.8127 847.905C95.4279 848.063 96.4395 848.2 96.9653 848.527C99.7559 850.262 96.591 865.192 98.0837 868.991C98.6373 870.4 100.028 869.736 101.294 870.505C101.957 873.582 100.307 876.855 101.114 879.84C101.51 881.303 102.33 881.854 103.568 882.615C105.822 883.999 104.774 889.781 105.803 892.422L107.747 892.576C108.562 893.806 108.29 894.26 108.143 895.694C111.685 898.533 109.594 897.85 110.336 901.312C110.688 902.954 113.639 904.402 114.53 905.764C115.349 907.015 114.082 909.467 114.889 910.642C115.801 911.971 118.002 912.496 119.296 913.512C120.558 914.504 121.661 915.881 122.71 917.092L122.648 917.521L123.158 917.732C123.052 918.09 122.547 919.632 122.663 919.907C123.273 921.351 128.392 923.222 129.595 924.675C130.135 925.327 129.612 926.694 130.436 927.527C134.929 932.07 145.185 938.901 150.825 942.358C152.478 943.372 156.828 944.786 157.927 945.951C158.393 946.444 158.463 947.198 158.731 947.821C159.907 948.222 160.024 948.187 161.246 947.89C162.899 947.49 163.256 947.324 164.676 948.199C166.793 953.389 168.811 949.547 171.191 951.596C171.9 952.207 171.616 953.35 172.964 953.458C175.272 953.643 177.832 951.781 179.972 953.136C180.397 954.049 180.834 955.384 181.745 955.917C184.432 957.485 194.994 954.337 198.692 956.125C198.864 956.934 199.019 957.324 199.411 958.096C207.665 958.882 216.631 958.03 224.964 958.022L281.839 958.023L454.381 957.87C453.509 956.906 439.815 935.718 439.696 935.37C439.508 934.821 439.597 933.722 439.561 933.108L438.532 931.771C430.239 921.155 421.688 905.094 415.137 893.061C414.058 891.078 411.776 889.669 410.523 887.724C409.424 886.017 409.221 883.923 408.291 882.166C407.209 880.123 405.512 878.278 404.283 876.298C401.623 872.013 399.258 867.474 396.714 863.108C397.135 862.169 396.942 862.414 397.414 861.821C400.518 857.924 401.894 852.856 403.658 848.277L403.658 847.019C407.962 840.577 410.096 828.441 413.579 820.909L414.24 820.809L414.644 823.239C417.829 826.44 419.552 831.501 421.114 835.627C421.389 835.699 421.667 835.76 421.94 835.841C424.779 836.683 423.233 837.935 424.188 839.939C425.229 842.122 427.676 844.517 429.01 846.739C431.44 850.789 433.169 854.98 435.39 859.06L437.191 859.328C437.364 859.703 437.543 860.076 437.703 860.456C442.284 871.308 450.878 883.5 457.256 893.586C462.202 901.405 466.625 909.603 472.456 916.813C472.305 920.916 477.791 927.107 480.293 930.405C482.288 933.034 483.255 936.005 484.377 939.075C487.174 940.824 487.268 941.577 488.042 944.638C488.864 947.887 491.836 949.781 494.295 951.888C494.239 952.116 494.225 952.359 494.126 952.571C493.983 952.881 493.761 953.147 493.578 953.435C493.936 954.796 494.51 955.525 495.509 956.496C496.123 957.092 496.529 957.481 497.383 957.73C501.283 958.867 522.592 958.012 528.189 958.009C528.552 957.004 528.838 956.178 529.433 955.284C531.225 952.593 532.559 949.443 534.244 946.643C536.265 943.284 538.76 940.079 540.574 936.616C541.563 934.728 541.754 932.428 543.026 930.741L544.711 930.562C547.148 926.944 548.3 922.306 550.478 918.464C554.12 917.36 554.522 911.505 556.376 908.391C557.233 906.951 558.204 908.09 559.492 905.955C562.111 901.615 563.871 895.592 567.18 891.857L568.572 891.787C573.096 882.289 580.158 870.601 586.748 862.383C586.884 860.742 586.852 859.159 587.754 857.726L589.461 857.56C591.174 855.701 591.52 852.698 593.059 850.576C597.024 845.113 599.707 838.185 604.387 833.41C605.112 832.67 604.963 831.555 605.065 830.535C607.177 827.784 615.49 816.326 615.57 813.482C615.606 812.207 618.17 809.969 619.109 808.948C621.921 805.888 622.433 801.513 624.545 797.99C625.102 797.824 625.771 797.644 626.296 797.399C627.291 796.934 627.743 795.195 628.149 794.263C633.209 782.639 641.314 771.339 648.036 760.537C658.226 744.164 668.096 727.639 678.442 711.359C679.704 709.372 680.134 706.942 681.365 705.02C682.829 702.735 685.056 700.954 686.477 698.568L776.863 546.97C782.892 536.664 789.762 526.778 795.96 516.558C797.388 514.204 798.493 511.688 799.886 509.322C801.515 506.554 804.297 504.526 805.487 501.53C806.449 499.109 807.477 496.119 809.134 494.101C812.436 490.079 814.842 485.353 817.517 480.903L830.721 459.17C832.133 456.891 834.731 454.303 835.811 452.034C836.324 450.956 836.21 449.617 836.736 448.553C837.663 446.678 840.067 445 841.317 443.131C844.209 438.808 846.495 433.964 849.133 429.471C851.201 425.949 853.653 422.675 855.722 419.19C856.413 418.026 856.71 416.682 856.923 415.358C856.959 415.135 856.981 414.91 857.01 414.686C861.157 413.698 863.942 401.517 866.756 399.474C866.906 399.365 868.523 398.876 868.615 398.787C870.661 396.799 870.263 390.744 873.726 389.069C875.346 388.286 878.366 381.169 879.607 379.287C880.831 377.431 882.401 375.744 883.409 373.756C884.49 371.621 885.171 368.444 886.61 366.601C887.079 366 887.837 365.691 888.492 365.343C890.03 364.527 892.068 357.968 893.543 356.062C898.745 349.343 903.176 339.745 907.749 332.28C908.641 330.823 910.708 331.087 911.2 329.307C911.553 328.028 910.67 327.342 911.396 325.851L913.254 325.298C915.056 322.435 915.415 318.8 916.83 315.7C917.59 315.413 918.83 315.064 919.384 314.457C920.644 313.079 921.202 309.721 922.108 307.953C924.145 303.978 927.564 301.061 929.126 296.617C930.295 293.293 929.321 262.55 929.312 256.6C942.625 253.054 956.472 250.983 969.746 247.186C969.96 273.36 969.454 299.568 969.472 325.748L969.487 703.172C969.491 718.203 970.348 846.308 969.153 848.858L967.271 849.016C964.69 850.895 968.571 860.005 964.682 864.858C962.256 867.885 966.06 874.824 963.741 878.1C963.172 878.304 962.25 878.552 961.718 878.888C959.211 880.471 961.281 887.73 960.733 890.649C959.895 891.042 959.005 891.391 958.605 892.296C956.391 897.302 956.131 903.245 953.291 908.925C952.828 909.232 952.36 909.532 951.91 909.857C950.129 911.148 950.684 913.669 950.378 915.819C946.976 919.714 944.441 924.697 941.689 929.097C941.709 933.526 940.065 930.774 938.195 933.189L938.684 934.973L933.778 939.334C933.999 940.448 934.121 940.822 933.786 941.938C930.303 942.672 931.235 944.385 929.429 946.896C929.024 946.926 927.466 946.935 927.193 947.134C925.888 948.084 924.038 952.62 922.407 954.31C917.929 954.553 921.352 956.006 919.258 957.436C918.35 958.056 916.943 956.917 916.07 958.263C915.397 959.301 916.265 960.255 915.067 961.522C914.524 961.431 913.188 961.093 912.693 961.249C911.052 961.767 907.065 967.093 904.688 968.44C903.388 968.493 902.37 968.54 901.15 969.067C901.371 970.013 901.444 970.308 901.231 971.288C893.953 972.145 897.99 972.956 894.385 974.787C893.006 974.504 891.806 974.127 890.425 974.597C890.252 975.572 890.268 975.172 890.315 976.175C890.326 976.412 890.344 976.648 890.358 976.885C888.524 978.347 885.805 977.154 883.96 978.507L883.828 979.78C881.802 980.639 880.318 979.362 878.364 980.028C878.094 980.685 877.813 981.614 877.391 982.174C876.572 983.261 871.706 983.063 870.131 983.387C869.342 984.267 869.533 983.898 869.119 984.903C868.167 987.21 851.734 987.162 848.661 988.631C848.487 989.21 848.293 990.288 847.942 990.753C846.52 992.636 833.021 989.986 829.483 991.316L828.86 993.418C828.57 993.566 828.302 993.769 827.99 993.861C825.285 994.663 809.213 993.946 805.349 993.946L725.739 993.943L354.182 993.968L239.127 994.008C233.654 994.013 202.688 994.809 199.546 993.724C199.454 993.367 199.303 992.73 199.163 992.408C197.816 989.289 181.825 993.178 178.265 991.349L177.862 989.162C174.114 986.691 165.644 990.05 162.545 988.39C161.526 987.844 161.284 986.267 159.947 986.023C158.102 985.686 156.644 986.763 154.756 986.314C151.088 982.775 147.926 984.225 143.547 982.33C143.14 981.563 142.718 980.817 142.266 980.075C138.851 980.808 137.466 979.329 134.66 977.684C132.782 976.582 131.666 975.371 129.439 975.974C129.267 976.021 129.096 976.072 128.925 976.121L128.023 975.253C127.736 974.092 127.673 973.249 126.822 972.362C126.072 972.304 125.318 972.21 124.568 972.163C120.5 971.905 113.862 965.668 110.298 963.078C110.245 962.571 110.209 962.021 110.057 961.532C109.535 959.848 104.765 958.296 103.277 957.203C102.05 956.301 102.276 955.598 102.157 954.211C100.98 952.801 100.465 954.108 99.0592 953.008L99.392 951.308L98.7307 950.545C97.8968 950.789 97.4598 950.87 96.5656 950.863C96.5798 950.075 96.5014 949.44 96.3226 948.672C95.2794 948.253 94.8312 948.1 94.0365 947.27C94.1232 947.044 94.5669 945.918 94.6029 945.705C94.7652 944.745 92.6332 943.496 91.9336 942.919C90.8531 942.027 89.5535 941.104 88.6575 940.025C87.2132 938.285 86.598 933.834 85.1065 932.614C85.0143 932.539 83.4792 932.283 83.3106 932.192C83.0141 932.032 81.8872 929.317 81.6224 928.794C80.1982 925.982 78.5821 923.391 76.8314 920.773C78.6421 917.632 74.0003 917.298 73.9369 912.903C73.9351 912.777 73.9417 911.693 73.9264 911.543C73.7215 909.535 72.3606 909.034 70.9739 907.725C71.1154 906.649 71.003 907.009 71.3469 906.085C71.4214 905.885 71.504 905.688 71.5825 905.49C71.0385 903.828 70.1179 903.218 68.7516 902.17L68.2067 901.759C67.1542 899.583 67.6662 897.807 67.4369 895.518C67.2572 893.723 66.1054 893.036 64.8638 891.929C64.6183 888.883 64.9424 884.993 63.7865 882.165L62.1807 881.768C60.5476 878.322 63.1797 872.754 61.5549 868.861C60.7417 868.729 60.3731 868.61 59.6006 868.237C59.0035 863.941 59.6537 859.495 59.6307 855.166C59.5979 848.97 58.8432 852.461 56.263 849.882C55.249 820.852 56.0865 791.529 56.0787 762.458L56.0695 594.568L55.998 260.159C55.9963 249.13 55.0427 170.723 56.2648 167.64L57.6918 167.395C59.5139 165.004 57.9932 152.015 58.5194 148.011C59.1232 147.424 59.4489 147.24 60.2726 146.946C60.5253 146.856 60.7832 146.781 61.0385 146.699C62.0777 144.127 60.2525 140.923 61.4679 138.425C62.4234 138.186 63.1275 138.017 63.9263 137.426C64.7955 134.737 64.0101 131.805 64.4238 128.991C65.0324 128.631 65.5728 128.365 66.241 128.117C66.4582 128.036 66.6779 127.962 66.8964 127.884C67.8626 125.802 67.4437 122.04 67.6833 119.682C67.7717 119.649 69.3796 119.061 69.4323 119.021C70.7055 118.06 73.7285 105.429 75.8905 102.887L76.8965 103.409C77.3241 102.491 77.27 102.831 77.345 101.928C77.3882 101.408 77.4025 100.886 77.4488 100.366C77.5866 98.8193 77.8787 98.4235 79.0121 97.4889L79.3994 98.9126C80.7676 97.2117 79.8002 95.0405 80.9646 93.1861L82.3829 93.3602C84.6045 90.9633 85.4711 87.4951 87.5735 84.9221L89.1019 85.0716C90.6331 84.1621 89.5071 82.406 90.5695 80.8859C92.5311 78.0791 96.0041 75.4618 98.5223 73.0499C98.3447 72.2883 98.2252 71.6019 98.1913 70.8201C99.8623 70.4522 101.644 70.1897 103.161 69.378C103.212 68.694 103.23 68.0513 103.204 67.3634C103.195 67.1372 103.182 66.9113 103.171 66.6852C104.103 65.865 107.034 65.4208 107.347 64.9653C108.025 63.982 107.357 63.1307 108.444 61.9552L110.773 61.9877C112.037 61.2767 111.747 59.8997 112.593 58.6441C113.212 58.7128 113.808 58.7984 114.421 58.9176L115.02 59.0391C116.151 58.1183 115.894 57.4969 116.489 56.2749C117.447 54.3088 123.532 52.4912 125.689 51.5865C125.822 50.8529 125.879 50.2844 126.329 49.6635C126.713 49.1344 129.978 48.926 130.858 48.7375C131.462 47.8109 132.04 46.9903 132.798 46.1843C133.843 46.4976 134.097 46.6009 135.201 46.3669C135.371 46.1073 135.537 45.8452 135.711 45.5881C137.607 42.785 143.663 42.2315 146.822 41.6521C146.856 40.7507 146.917 40.6068 147.354 39.737C148.85 39.4485 149.052 39.8477 150.321 40.6113C154.921 36.2827 155.134 39.5571 159.832 38.3045C160.562 37.6763 161.512 36.7349 162.405 36.378C165.22 35.2526 172.508 36.6613 176.197 36.1181C179.929 30.447 192.426 35.2178 198.21 33.2856C199.227 32.9458 199.358 32.0912 199.824 31.1765Z"/>
	<path fill="#E7ECEF" transform="matrix(0.234375 0 0 0.234375 -6.10352e-05 -6.10352e-05)" d="M928.858 372.381C930.059 376.185 930.17 845.69 929.451 847.651L927.815 848.042C924.989 851.212 928.587 861.386 926.7 865.853C925.914 866.108 925.178 866.29 924.508 866.796C923.206 867.779 924.184 877.185 923.83 879.438C923.19 879.932 922.577 880.302 921.852 880.652L921.028 881.044C920.328 883.273 922.009 885.075 921.317 887.302L919.465 888.064C918.735 888.976 918.715 890.106 918.686 891.238C918.589 894.985 915.714 899.662 913.758 902.852L912.466 903.076C911.544 904.36 911.666 905.61 911.503 907.165C910.49 908.252 910.357 908.056 908.846 908.132C908.149 909.337 908.492 913.119 907.832 913.552C907.792 913.578 906.317 913.912 906.229 913.949C904.734 914.592 904.368 917.977 903.306 919.259C901.435 921.519 888.67 934.059 886.301 935.735C884.266 937.175 881.058 937.175 879.443 939.054L879.861 940.584L879.312 941.213C874.14 941.784 876.731 942.856 874.71 944.176C872.59 945.559 868.267 945.232 865.797 946.597C865.597 947.302 865.456 947.937 865.367 948.669C865.34 948.9 865.319 949.132 865.294 949.363C862.159 950.596 858.227 948.843 855.179 950.002C854.431 950.286 854.37 951.234 854.113 951.932C852.243 953.513 844.433 953.952 841.895 953.864C839.543 953.783 837.073 953.519 834.812 954.259Q834.7 955.019 834.578 955.778C831.446 956.59 828.19 955.463 824.956 956.05C824.202 957.16 824.598 956.624 823.769 957.659Q822.735 957.779 821.697 957.865C812.34 958.638 802.365 957.969 792.947 957.952L740.802 958.039C686.833 958.1 632.785 958.61 578.826 957.846C576.873 957.819 572.033 958.141 570.651 956.984C570.854 955.601 571.377 954.86 572.167 953.757L572.474 953.336L572.854 953.347C572.949 953.221 573.072 953.113 573.138 952.97C574.203 950.653 574.675 948.356 576.187 946.193C576.468 946.154 577.6 946.016 577.833 945.909C578.999 945.372 578.471 944.674 578.306 943.667C578.184 942.93 578.513 942.756 578.911 942.173C586.804 930.624 594.264 918.825 601.579 906.894C603.879 903.144 605.809 899.152 608.147 895.433C612.503 888.506 617.223 882.116 621.092 874.828C622.017 874.469 622.985 874.19 623.665 873.432C624.427 872.584 623.71 870.151 624.145 868.991C624.858 867.092 628.844 865.016 629.942 862.944C630.182 862.49 629.801 861.263 629.985 860.728C630.699 858.654 633.389 855.61 634.619 853.596C639.656 845.353 644.155 836.724 649.664 828.789C650.735 827.246 656.575 819.786 656.739 818.65C656.933 817.297 656.025 817.381 656.788 815.811C657.957 815.396 659.093 815.169 659.801 814.071C659.83 813.141 659.837 812.5 660.211 811.633C661.483 808.688 664.424 805.526 666.173 802.718C667.404 800.744 668.279 798.506 669.579 796.596C670.792 794.813 672.478 793.381 673.757 791.606L673.455 789.791C674.538 787.441 676.521 785.291 677.943 783.099C681.232 778.03 684.309 772.823 687.872 767.937C688.047 763.392 688.607 766.207 690.616 763.736C690.55 762.957 690.361 761.94 690.474 761.175C690.505 760.964 690.582 760.761 690.662 760.563C691.016 759.692 692.691 759.909 693.335 759.02C695.596 755.897 695.552 751.724 698.605 748.993C699.985 747.76 701.195 746.324 702.453 744.966C702.499 743.631 702.434 742.498 703.179 741.329C704.342 740.779 705.051 740.491 705.846 739.434C705.831 738.499 705.881 737.486 706.251 736.611C707.89 732.729 711.781 728.849 714.043 725.121C716.457 721.14 718.277 716.828 720.622 712.818C722.099 710.294 724.427 708.182 726.014 705.693C727.064 704.046 727.805 702.111 728.807 700.398L740.308 680.78C740.823 680.552 741.808 680.2 742.178 679.824C743.242 678.746 745.336 672.259 746.315 670.474C749.821 669.353 750.7 663.593 752.586 660.512C753.188 660.316 754.67 659.957 754.923 659.298C755.162 658.676 754.452 657.661 754.787 656.808C755.644 654.623 758.44 652.476 759.89 650.502C760.016 649.237 760.017 647.774 760.615 646.632C760.996 645.906 762.426 645.757 763.195 645.531C765.043 643.759 765.764 639.258 766.946 636.812L768.866 636.483C769.369 635.836 769.543 635.444 769.613 634.619C770.068 629.237 772.673 629.979 775.084 626.11C775.701 625.12 775.142 624.047 776.71 621.575C778.75 618.358 784.286 611.755 784.513 608.488C784.608 607.119 794.095 594.09 795.764 591.32C796.683 589.793 796.385 588.3 797.219 586.744L799.248 586.251C801.023 584.486 801.326 580.78 802.54 578.473C803.529 578.194 804.202 578.016 804.982 577.331C804.906 576.919 804.717 575.986 804.721 575.588C804.746 573.291 809.575 571.058 810.413 568.774C810.621 568.205 810.117 566.954 810.235 566.3C810.714 563.641 822.447 547.454 824.734 544.751C824.7 543.868 824.743 544.199 824.598 543.366C824.428 542.388 825.33 541.556 825.874 540.737C832.881 530.186 839.451 519.499 845.199 508.207C846.613 507.531 847.541 507.246 848.144 505.701C852.318 495.012 859.761 486.14 865.64 476.366C866.861 474.335 867.487 470.13 869.102 468.658C869.465 468.327 870.086 467.963 870.504 467.673C872.321 466.416 873.007 462.355 874.376 460.366C881.548 449.951 887.712 436.301 895.851 426.936C896.666 425.999 896.556 423.527 896.976 422.205C901.931 420.263 900.379 414.979 903.507 411.76C904.668 410.565 905.524 411.544 906.526 409.304C907.404 407.339 908.231 402.285 909.473 400.874C909.808 400.494 911.201 399.984 911.713 399.72C913.672 393.89 924.505 376.85 928.858 372.381Z"/>
</svg>
